<svg width="278" height="80" viewBox="0 0 278 80" fill="none" xmlns="http://www.w3.org/2000/svg">
<path d="M267.031 80H10.9728C5.34207 80 0.730469 75.4975 0.730469 70V10C0.730469 4.5025 5.34207 4.22795e-06 10.9728 4.22795e-06H267.031C272.661 4.22795e-06 277.273 4.5025 277.273 10V70C277.273 75.4975 272.661 80 267.031 80Z" fill="white"/>
<path d="M267.031 1.6025C271.773 1.6025 275.632 5.37 275.632 10V70C275.632 74.63 271.773 78.3975 267.031 78.3975H10.9728C6.23059 78.3975 2.3718 74.63 2.3718 70V10C2.3718 5.37 6.23059 1.6025 10.9728 1.6025H267.031ZM267.031 4.22795e-06H10.9728C5.34207 4.22795e-06 0.730469 4.5025 0.730469 10V70C0.730469 75.4975 5.34207 80 10.9728 80H267.031C272.661 80 277.273 75.4975 277.273 70V10C277.273 4.5025 272.661 4.22795e-06 267.031 4.22795e-06Z" fill="#A6A6A6"/>
<path d="M97.8653 20.4875C97.8653 22.1575 97.3532 23.495 96.3443 24.4925C95.1844 25.675 93.6737 26.27 91.8224 26.27C90.053 26.27 88.5423 25.665 87.3029 24.4725C86.0611 23.2625 85.4414 21.7775 85.4414 20C85.4414 18.2225 86.0611 16.7375 87.3029 15.5375C88.5423 14.335 90.053 13.73 91.8224 13.73C92.7032 13.73 93.5431 13.9075 94.3445 14.2375C95.1434 14.57 95.7938 15.02 96.265 15.575L95.1946 16.63C94.3727 15.6825 93.2537 15.215 91.8224 15.215C90.5318 15.215 89.4129 15.655 88.4629 16.5425C87.5232 17.4325 87.052 18.585 87.052 20C87.052 21.415 87.5232 22.5775 88.4629 23.4675C89.4129 24.345 90.5318 24.795 91.8224 24.795C93.1923 24.795 94.3445 24.345 95.2535 23.4575C95.8527 22.87 96.1933 22.06 96.2829 21.025H91.8224V19.58H97.7731C97.8448 19.8925 97.8653 20.195 97.8653 20.4875Z" fill="black"/>
<path d="M107.305 15.4774H101.715V19.2774H106.754V20.7224H101.715V24.5224H107.305V25.9949H100.133V14.0049H107.305V15.4774Z" fill="black"/>
<path d="M113.968 25.9949H112.386V15.4774H108.957V14.0049H117.399V15.4774H113.968V25.9949Z" fill="black"/>
<path d="M123.504 25.9949V14.0049H125.084V25.9949H123.504Z" fill="black"/>
<path d="M132.093 25.9949H130.523V15.4774H127.082V14.0049H135.534V15.4774H132.093V25.9949Z" fill="black"/>
<path d="M151.515 24.4525C150.304 25.665 148.803 26.27 147.013 26.27C145.213 26.27 143.713 25.665 142.502 24.4525C141.293 23.2425 140.691 21.7575 140.691 20C140.691 18.2425 141.293 16.7575 142.502 15.5475C143.713 14.335 145.213 13.73 147.013 13.73C148.793 13.73 150.294 14.335 151.505 15.5575C152.724 16.7775 153.325 18.2525 153.325 20C153.325 21.7575 152.724 23.2425 151.515 24.4525ZM143.672 23.4475C144.583 24.345 145.692 24.795 147.013 24.795C148.324 24.795 149.443 24.345 150.345 23.4475C151.254 22.55 151.715 21.3975 151.715 20C151.715 18.6025 151.254 17.45 150.345 16.5525C149.443 15.655 148.324 15.205 147.013 15.205C145.692 15.205 144.583 15.655 143.672 16.5525C142.763 17.45 142.302 18.6025 142.302 20C142.302 21.3975 142.763 22.55 143.672 23.4475Z" fill="black"/>
<path d="M155.543 25.9949V14.0049H157.463L163.435 23.3299H163.504L163.435 21.0249V14.0049H165.015V25.9949H163.366L157.113 16.2099H157.043L157.113 18.5249V25.9949H155.543Z" fill="black"/>
<path d="M140.3 43.5053C135.489 43.5053 131.558 47.0803 131.558 52.0128C131.558 56.9053 135.489 60.5178 140.3 60.5178C145.122 60.5178 149.052 56.9053 149.052 52.0128C149.052 47.0803 145.122 43.5053 140.3 43.5053ZM140.3 57.1678C137.66 57.1678 135.389 55.0403 135.389 52.0128C135.389 48.9453 137.66 46.8553 140.3 46.8553C142.94 46.8553 145.221 48.9453 145.221 52.0128C145.221 55.0403 142.94 57.1678 140.3 57.1678ZM121.226 43.5053C116.405 43.5053 112.484 47.0803 112.484 52.0128C112.484 56.9053 116.405 60.5178 121.226 60.5178C126.045 60.5178 129.968 56.9053 129.968 52.0128C129.968 47.0803 126.045 43.5053 121.226 43.5053ZM121.226 57.1678C118.584 57.1678 116.305 55.0403 116.305 52.0128C116.305 48.9453 118.584 46.8553 121.226 46.8553C123.866 46.8553 126.137 48.9453 126.137 52.0128C126.137 55.0403 123.866 57.1678 121.226 57.1678ZM98.5292 46.1128V49.7278H107.371C107.112 51.7478 106.421 53.2328 105.361 54.2678C104.07 55.5178 102.06 56.9053 98.5292 56.9053C93.088 56.9053 88.8272 52.6178 88.8272 47.3053C88.8272 41.9928 93.088 37.7053 98.5292 37.7053C101.471 37.7053 103.612 38.8278 105.192 40.2828L107.801 37.7353C105.591 35.6753 102.652 34.0928 98.5292 34.0928C91.0677 34.0928 84.7969 40.0203 84.7969 47.3053C84.7969 54.5903 91.0677 60.5178 98.5292 60.5178C102.562 60.5178 105.591 59.2278 107.973 56.8078C110.413 54.4253 111.173 51.0753 111.173 48.3703C111.173 47.5303 111.102 46.7578 110.974 46.1128H98.5292ZM191.34 48.9153C190.62 47.0128 188.4 43.5053 183.878 43.5053C179.397 43.5053 175.667 46.9528 175.667 52.0128C175.667 56.7778 179.359 60.5178 184.309 60.5178C188.311 60.5178 190.62 58.1353 191.57 56.7478L188.6 54.8153C187.609 56.2303 186.26 57.1678 184.309 57.1678C182.37 57.1678 180.98 56.3003 180.089 54.5903L191.742 49.8828L191.34 48.9153ZM179.459 51.7478C179.359 48.4678 182.068 46.7878 184.009 46.7878C185.53 46.7878 186.821 47.5303 187.251 48.5928L179.459 51.7478ZM169.987 60.0003H173.818V35.0003H169.987V60.0003ZM163.714 45.4003H163.586C162.725 44.4053 161.084 43.5053 159.005 43.5053C154.642 43.5053 150.652 47.2453 150.652 52.0403C150.652 56.8078 154.642 60.5178 159.005 60.5178C161.084 60.5178 162.725 59.6103 163.586 58.5853H163.714V59.8053C163.714 63.0578 161.934 64.8053 159.064 64.8053C156.723 64.8053 155.272 63.1553 154.672 61.7678L151.341 63.1253C152.301 65.3803 154.844 68.1553 159.064 68.1553C163.555 68.1553 167.345 65.5753 167.345 59.2978V44.0228H163.714V45.4003ZM159.333 57.1678C156.693 57.1678 154.483 55.0103 154.483 52.0403C154.483 49.0428 156.693 46.8553 159.333 46.8553C161.934 46.8553 163.985 49.0428 163.985 52.0403C163.985 55.0103 161.934 57.1678 159.333 57.1678ZM209.274 35.0003H200.112V60.0003H203.933V50.5278H209.274C213.517 50.5278 217.678 47.5303 217.678 42.7628C217.678 37.9978 213.507 35.0003 209.274 35.0003ZM209.374 47.0503H203.933V38.4778H209.374C212.227 38.4778 213.855 40.7903 213.855 42.7628C213.855 44.6978 212.227 47.0503 209.374 47.0503ZM232.99 43.4578C230.23 43.4578 227.36 44.6478 226.179 47.2853L229.569 48.6728C230.299 47.2853 231.641 46.8353 233.059 46.8353C235.041 46.8353 237.051 47.9978 237.082 50.0503V50.3128C236.391 49.9228 234.911 49.3453 233.09 49.3453C229.439 49.3453 225.718 51.3078 225.718 54.9703C225.718 58.3203 228.709 60.4778 232.071 60.4778C234.642 60.4778 236.06 59.3453 236.951 58.0278H237.082V59.9603H240.772V50.3703C240.772 45.9378 237.382 43.4578 232.99 43.4578ZM232.529 57.1578C231.28 57.1578 229.539 56.5528 229.539 55.0403C229.539 53.1053 231.71 52.3628 233.589 52.3628C235.272 52.3628 236.06 52.7253 237.082 53.2028C236.782 55.5178 234.742 57.1578 232.529 57.1578ZM254.215 44.0053L249.824 54.8428H249.693L245.153 44.0053H241.033L247.854 59.1503L243.962 67.5778H247.954L258.465 44.0053H254.215ZM219.778 60.0003H223.608V35.0003H219.778V60.0003Z" fill="black"/>
<path d="M22.1062 15.0774C21.5045 15.6924 21.1562 16.6499 21.1562 17.8899V62.1199C21.1562 63.3599 21.5045 64.3174 22.1062 64.9324L22.2547 65.0674L47.6403 40.2924V39.7074L22.2547 14.9324L22.1062 15.0774Z" fill="url(#paint0_linear_593_663)"/>
<path d="M56.097 48.5552L47.6445 40.2927V39.7077L56.1072 31.4452L56.2967 31.5527L66.3188 37.1202C69.179 38.7002 69.179 41.3002 66.3188 42.8902L56.2967 48.4477L56.097 48.5552Z" fill="url(#paint1_linear_593_663)"/>
<path d="M56.2917 48.4475L47.6395 40L22.1055 64.9324C23.0554 65.9074 24.6046 66.0249 26.3663 65.05L56.2917 48.4475Z" fill="url(#paint2_linear_593_663)"/>
<path d="M56.2917 31.5525L26.3663 14.95C24.6046 13.985 23.0554 14.1025 22.1055 15.0775L47.6395 40L56.2917 31.5525Z" fill="url(#paint3_linear_593_663)"/>
<defs>
<linearGradient id="paint0_linear_593_663" x1="45.3864" y1="62.5805" x2="11.8312" y2="28.2122" gradientUnits="userSpaceOnUse">
<stop stop-color="#00A0FF"/>
<stop offset="0.0066" stop-color="#00A1FF"/>
<stop offset="0.2601" stop-color="#00BEFF"/>
<stop offset="0.5122" stop-color="#00D2FF"/>
<stop offset="0.7604" stop-color="#00DFFF"/>
<stop offset="1" stop-color="#00E3FF"/>
</linearGradient>
<linearGradient id="paint1_linear_593_663" x1="70.0432" y1="39.9974" x2="20.4768" y2="39.9974" gradientUnits="userSpaceOnUse">
<stop stop-color="#FFE000"/>
<stop offset="0.4087" stop-color="#FFBD00"/>
<stop offset="0.7754" stop-color="#FFA500"/>
<stop offset="1" stop-color="#FF9C00"/>
</linearGradient>
<linearGradient id="paint2_linear_593_663" x1="51.5869" y1="35.4078" x2="6.08339" y2="-11.1984" gradientUnits="userSpaceOnUse">
<stop stop-color="#FF3A44"/>
<stop offset="1" stop-color="#C31162"/>
</linearGradient>
<linearGradient id="paint3_linear_593_663" x1="15.678" y1="79.6476" x2="35.9974" y2="58.8361" gradientUnits="userSpaceOnUse">
<stop stop-color="#32A071"/>
<stop offset="0.0685" stop-color="#2DA771"/>
<stop offset="0.4762" stop-color="#15CF74"/>
<stop offset="0.8009" stop-color="#06E775"/>
<stop offset="1" stop-color="#00F076"/>
</linearGradient>
</defs>
</svg>
