<svg width="289" height="69" viewBox="0 0 289 69" fill="none" xmlns="http://www.w3.org/2000/svg">
<path d="M1.64459 3.97248C0.919579 4.72567 0.5 5.89831 0.5 7.41693V61.585C0.5 63.1036 0.919579 64.2763 1.64459 65.0295L1.82353 65.1948L32.4098 34.8531V34.1366L1.82353 3.79491L1.64459 3.97248Z" fill="url(#paint0_linear_593_578)"/>
<path d="M42.5995 44.9718L32.4154 34.8528V34.1363L42.6118 24.0173L42.8401 24.149L54.9154 30.9674C58.3615 32.9025 58.3615 36.0867 54.9154 38.0339L42.8401 44.8401L42.5995 44.9718Z" fill="url(#paint1_linear_593_578)"/>
<path d="M42.8306 44.8402L32.4059 34.4947L1.64067 65.0293C2.78526 66.2233 4.65178 66.3672 6.77437 65.1732L42.8306 44.8402Z" fill="url(#paint2_linear_593_578)"/>
<path d="M42.8306 24.1494L6.77437 3.81643C4.65178 2.63461 2.78526 2.7785 1.64067 3.97258L32.4059 34.4947L42.8306 24.1494Z" fill="url(#paint3_linear_593_578)"/>
<path d="M104.751 12.2676H109.242V18.499C108.568 18.7275 107.874 18.8975 107.159 19.0088C106.45 19.1201 105.656 19.1758 104.777 19.1758C103.441 19.1758 102.313 18.9092 101.394 18.376C100.479 17.8428 99.7852 17.084 99.3105 16.0996C98.8359 15.1094 98.5986 13.9346 98.5986 12.5752C98.5986 11.2451 98.8594 10.085 99.3809 9.09473C99.9082 8.10449 100.667 7.33691 101.657 6.79199C102.653 6.24121 103.849 5.96582 105.243 5.96582C105.958 5.96582 106.635 6.0332 107.273 6.16797C107.918 6.29688 108.516 6.48145 109.066 6.72168L108.495 8.02246C108.021 7.81738 107.496 7.6416 106.922 7.49512C106.354 7.34863 105.765 7.27539 105.155 7.27539C104.106 7.27539 103.207 7.49219 102.457 7.92578C101.713 8.35938 101.142 8.97168 100.743 9.7627C100.351 10.5537 100.154 11.4912 100.154 12.5752C100.154 13.6475 100.327 14.582 100.673 15.3789C101.019 16.1699 101.558 16.7852 102.29 17.2246C103.022 17.6641 103.966 17.8838 105.12 17.8838C105.7 17.8838 106.198 17.8516 106.614 17.7871C107.03 17.7168 107.408 17.6348 107.748 17.541V13.6035H104.751V12.2676ZM116.843 9.19141C117.663 9.19141 118.366 9.37305 118.952 9.73633C119.538 10.0996 119.986 10.6094 120.297 11.2656C120.607 11.916 120.763 12.6777 120.763 13.5508V14.4561H114.109C114.127 15.5869 114.408 16.4482 114.953 17.04C115.498 17.6318 116.266 17.9277 117.256 17.9277C117.865 17.9277 118.404 17.8721 118.873 17.7607C119.342 17.6494 119.828 17.4854 120.332 17.2686V18.5518C119.846 18.7686 119.362 18.9268 118.882 19.0264C118.407 19.126 117.845 19.1758 117.194 19.1758C116.269 19.1758 115.46 18.9883 114.769 18.6133C114.083 18.2324 113.55 17.6758 113.169 16.9434C112.788 16.2109 112.598 15.3145 112.598 14.2539C112.598 13.2168 112.771 12.3203 113.116 11.5645C113.468 10.8027 113.96 10.2168 114.593 9.80664C115.231 9.39648 115.981 9.19141 116.843 9.19141ZM116.825 10.3867C116.046 10.3867 115.425 10.6416 114.962 11.1514C114.499 11.6611 114.224 12.373 114.136 13.2871H119.233C119.228 12.7129 119.137 12.209 118.961 11.7754C118.791 11.3359 118.53 10.9961 118.179 10.7559C117.827 10.5098 117.376 10.3867 116.825 10.3867ZM127.353 17.9805C127.593 17.9805 127.839 17.96 128.091 17.9189C128.343 17.8779 128.548 17.8281 128.706 17.7695V18.9033C128.536 18.9795 128.299 19.0439 127.994 19.0967C127.695 19.1494 127.402 19.1758 127.115 19.1758C126.605 19.1758 126.143 19.0879 125.727 18.9121C125.311 18.7305 124.977 18.4258 124.725 17.998C124.479 17.5703 124.355 16.9785 124.355 16.2227V10.5098H122.984V9.79785L124.364 9.22656L124.944 7.13477H125.823V9.36719H128.645V10.5098H125.823V16.1787C125.823 16.7822 125.961 17.2334 126.236 17.5322C126.518 17.8311 126.89 17.9805 127.353 17.9805ZM138.792 9.36719V19H137.333V9.36719H138.792ZM138.08 5.76367C138.32 5.76367 138.525 5.84277 138.695 6.00098C138.871 6.15332 138.959 6.39355 138.959 6.72168C138.959 7.04395 138.871 7.28418 138.695 7.44238C138.525 7.60059 138.32 7.67969 138.08 7.67969C137.828 7.67969 137.617 7.60059 137.447 7.44238C137.283 7.28418 137.201 7.04395 137.201 6.72168C137.201 6.39355 137.283 6.15332 137.447 6.00098C137.617 5.84277 137.828 5.76367 138.08 5.76367ZM145.997 17.9805C146.237 17.9805 146.483 17.96 146.735 17.9189C146.987 17.8779 147.192 17.8281 147.351 17.7695V18.9033C147.181 18.9795 146.943 19.0439 146.639 19.0967C146.34 19.1494 146.047 19.1758 145.76 19.1758C145.25 19.1758 144.787 19.0879 144.371 18.9121C143.955 18.7305 143.621 18.4258 143.369 17.998C143.123 17.5703 143 16.9785 143 16.2227V10.5098H141.629V9.79785L143.009 9.22656L143.589 7.13477H144.468V9.36719H147.289V10.5098H144.468V16.1787C144.468 16.7822 144.605 17.2334 144.881 17.5322C145.162 17.8311 145.534 17.9805 145.997 17.9805ZM164.283 14.166C164.283 14.957 164.181 15.6631 163.976 16.2842C163.771 16.9053 163.475 17.4297 163.088 17.8574C162.701 18.2852 162.232 18.6133 161.682 18.8418C161.137 19.0645 160.519 19.1758 159.827 19.1758C159.183 19.1758 158.591 19.0645 158.052 18.8418C157.519 18.6133 157.056 18.2852 156.663 17.8574C156.276 17.4297 155.975 16.9053 155.758 16.2842C155.547 15.6631 155.441 14.957 155.441 14.166C155.441 13.1113 155.62 12.2148 155.978 11.4766C156.335 10.7324 156.845 10.167 157.507 9.78027C158.175 9.3877 158.969 9.19141 159.889 9.19141C160.768 9.19141 161.535 9.3877 162.191 9.78027C162.854 10.1729 163.366 10.7412 163.729 11.4854C164.099 12.2236 164.283 13.1172 164.283 14.166ZM156.953 14.166C156.953 14.9395 157.056 15.6104 157.261 16.1787C157.466 16.7471 157.782 17.1865 158.21 17.4971C158.638 17.8076 159.188 17.9629 159.862 17.9629C160.53 17.9629 161.078 17.8076 161.506 17.4971C161.939 17.1865 162.259 16.7471 162.464 16.1787C162.669 15.6104 162.771 14.9395 162.771 14.166C162.771 13.3984 162.669 12.7363 162.464 12.1797C162.259 11.6172 161.942 11.1836 161.515 10.8789C161.087 10.5742 160.533 10.4219 159.854 10.4219C158.852 10.4219 158.116 10.7529 157.647 11.415C157.185 12.0771 156.953 12.9941 156.953 14.166ZM172.367 9.19141C173.51 9.19141 174.374 9.47266 174.96 10.0352C175.546 10.5918 175.839 11.4883 175.839 12.7246V19H174.397V12.8213C174.397 12.0186 174.213 11.418 173.844 11.0195C173.48 10.6211 172.921 10.4219 172.165 10.4219C171.099 10.4219 170.349 10.7236 169.915 11.3271C169.481 11.9307 169.265 12.8066 169.265 13.9551V19H167.806V9.36719H168.983L169.203 10.7559H169.282C169.487 10.416 169.748 10.1318 170.064 9.90332C170.381 9.66895 170.735 9.49316 171.128 9.37598C171.521 9.25293 171.934 9.19141 172.367 9.19141Z" fill="black"/>
<path d="M109.719 46.5938H118.25V58.0625C117.052 58.4583 115.812 58.7656 114.531 58.9844C113.25 59.2031 111.812 59.3125 110.219 59.3125C107.896 59.3125 105.927 58.8542 104.312 57.9375C102.708 57.0104 101.49 55.6719 100.656 53.9219C99.8229 52.1615 99.4062 50.0417 99.4062 47.5625C99.4062 45.1771 99.8698 43.1094 100.797 41.3594C101.724 39.599 103.073 38.2396 104.844 37.2812C106.615 36.3125 108.76 35.8281 111.281 35.8281C112.521 35.8281 113.719 35.9531 114.875 36.2031C116.042 36.4427 117.109 36.776 118.078 37.2031L116.766 40.2969C115.995 39.9323 115.13 39.625 114.172 39.375C113.214 39.125 112.219 39 111.188 39C109.552 39 108.141 39.3542 106.953 40.0625C105.776 40.7708 104.87 41.7708 104.234 43.0625C103.599 44.3438 103.281 45.8594 103.281 47.6094C103.281 49.3073 103.536 50.7969 104.047 52.0781C104.557 53.3594 105.354 54.3594 106.438 55.0781C107.531 55.7865 108.943 56.1406 110.672 56.1406C111.536 56.1406 112.271 56.0938 112.875 56C113.479 55.9062 114.036 55.8021 114.547 55.6875V49.7969H109.719V46.5938ZM139.656 50.3125C139.656 51.75 139.469 53.026 139.094 54.1406C138.719 55.2552 138.172 56.1979 137.453 56.9688C136.734 57.7292 135.87 58.3125 134.859 58.7188C133.849 59.1146 132.708 59.3125 131.438 59.3125C130.25 59.3125 129.161 59.1146 128.172 58.7188C127.182 58.3125 126.323 57.7292 125.594 56.9688C124.875 56.1979 124.318 55.2552 123.922 54.1406C123.526 53.026 123.328 51.75 123.328 50.3125C123.328 48.4062 123.656 46.7917 124.312 45.4688C124.979 44.1354 125.927 43.1198 127.156 42.4219C128.385 41.724 129.849 41.375 131.547 41.375C133.141 41.375 134.547 41.724 135.766 42.4219C136.984 43.1198 137.938 44.1354 138.625 45.4688C139.312 46.8021 139.656 48.4167 139.656 50.3125ZM127.109 50.3125C127.109 51.5729 127.26 52.651 127.562 53.5469C127.875 54.4427 128.354 55.1302 129 55.6094C129.646 56.0781 130.479 56.3125 131.5 56.3125C132.521 56.3125 133.354 56.0781 134 55.6094C134.646 55.1302 135.12 54.4427 135.422 53.5469C135.724 52.651 135.875 51.5729 135.875 50.3125C135.875 49.0521 135.724 47.9844 135.422 47.1094C135.12 46.224 134.646 45.5521 134 45.0938C133.354 44.625 132.516 44.3906 131.484 44.3906C129.964 44.3906 128.854 44.901 128.156 45.9219C127.458 46.9427 127.109 48.4062 127.109 50.3125ZM160.188 50.3125C160.188 51.75 160 53.026 159.625 54.1406C159.25 55.2552 158.703 56.1979 157.984 56.9688C157.266 57.7292 156.401 58.3125 155.391 58.7188C154.38 59.1146 153.24 59.3125 151.969 59.3125C150.781 59.3125 149.693 59.1146 148.703 58.7188C147.714 58.3125 146.854 57.7292 146.125 56.9688C145.406 56.1979 144.849 55.2552 144.453 54.1406C144.057 53.026 143.859 51.75 143.859 50.3125C143.859 48.4062 144.188 46.7917 144.844 45.4688C145.51 44.1354 146.458 43.1198 147.688 42.4219C148.917 41.724 150.38 41.375 152.078 41.375C153.672 41.375 155.078 41.724 156.297 42.4219C157.516 43.1198 158.469 44.1354 159.156 45.4688C159.844 46.8021 160.188 48.4167 160.188 50.3125ZM147.641 50.3125C147.641 51.5729 147.792 52.651 148.094 53.5469C148.406 54.4427 148.885 55.1302 149.531 55.6094C150.177 56.0781 151.01 56.3125 152.031 56.3125C153.052 56.3125 153.885 56.0781 154.531 55.6094C155.177 55.1302 155.651 54.4427 155.953 53.5469C156.255 52.651 156.406 51.5729 156.406 50.3125C156.406 49.0521 156.255 47.9844 155.953 47.1094C155.651 46.224 155.177 45.5521 154.531 45.0938C153.885 44.625 153.047 44.3906 152.016 44.3906C150.495 44.3906 149.385 44.901 148.688 45.9219C147.99 46.9427 147.641 48.4062 147.641 50.3125ZM170.344 66.6875C168 66.6875 166.203 66.2656 164.953 65.4219C163.703 64.5781 163.078 63.3958 163.078 61.875C163.078 60.8125 163.411 59.9115 164.078 59.1719C164.745 58.4427 165.698 57.9375 166.938 57.6562C166.469 57.4479 166.062 57.125 165.719 56.6875C165.385 56.2396 165.219 55.7448 165.219 55.2031C165.219 54.5573 165.401 54.0052 165.766 53.5469C166.13 53.0885 166.677 52.6458 167.406 52.2188C166.5 51.8333 165.771 51.2083 165.219 50.3438C164.677 49.4688 164.406 48.4427 164.406 47.2656C164.406 46.0156 164.672 44.9531 165.203 44.0781C165.734 43.1927 166.51 42.5208 167.531 42.0625C168.552 41.5938 169.786 41.3594 171.234 41.3594C171.547 41.3594 171.885 41.3802 172.25 41.4219C172.625 41.4531 172.969 41.4948 173.281 41.5469C173.604 41.5885 173.849 41.6354 174.016 41.6875H180V43.7344L177.062 44.2812C177.344 44.6771 177.568 45.1302 177.734 45.6406C177.901 46.1406 177.984 46.6875 177.984 47.2812C177.984 49.0729 177.365 50.4844 176.125 51.5156C174.896 52.5365 173.198 53.0469 171.031 53.0469C170.51 53.026 170.005 52.9844 169.516 52.9219C169.141 53.151 168.854 53.4062 168.656 53.6875C168.458 53.9583 168.359 54.2656 168.359 54.6094C168.359 54.8906 168.458 55.1198 168.656 55.2969C168.854 55.4635 169.146 55.5885 169.531 55.6719C169.927 55.7552 170.406 55.7969 170.969 55.7969H173.953C175.849 55.7969 177.297 56.1979 178.297 57C179.297 57.8021 179.797 58.9792 179.797 60.5312C179.797 62.5 178.984 64.0156 177.359 65.0781C175.734 66.151 173.396 66.6875 170.344 66.6875ZM170.484 64.1094C171.766 64.1094 172.844 63.9844 173.719 63.7344C174.594 63.4844 175.255 63.125 175.703 62.6562C176.151 62.1979 176.375 61.651 176.375 61.0156C176.375 60.4531 176.234 60.0208 175.953 59.7188C175.672 59.4167 175.25 59.2083 174.688 59.0938C174.125 58.9792 173.427 58.9219 172.594 58.9219H169.875C169.198 58.9219 168.599 59.026 168.078 59.2344C167.557 59.4531 167.151 59.7656 166.859 60.1719C166.578 60.5781 166.438 61.0677 166.438 61.6406C166.438 62.4323 166.786 63.0417 167.484 63.4688C168.193 63.8958 169.193 64.1094 170.484 64.1094ZM171.203 50.6406C172.276 50.6406 173.073 50.349 173.594 49.7656C174.115 49.1719 174.375 48.3385 174.375 47.2656C174.375 46.099 174.104 45.224 173.562 44.6406C173.031 44.0573 172.24 43.7656 171.188 43.7656C170.156 43.7656 169.37 44.0625 168.828 44.6562C168.297 45.25 168.031 46.1302 168.031 47.2969C168.031 48.349 168.297 49.1719 168.828 49.7656C169.37 50.349 170.161 50.6406 171.203 50.6406ZM187.844 59H184.156V34.6875H187.844V59ZM200.984 41.375C202.526 41.375 203.849 41.6927 204.953 42.3281C206.057 42.9635 206.906 43.8646 207.5 45.0312C208.094 46.1979 208.391 47.5938 208.391 49.2188V51.1875H196.844C196.885 52.8646 197.333 54.1562 198.188 55.0625C199.052 55.9688 200.26 56.4219 201.812 56.4219C202.917 56.4219 203.906 56.3177 204.781 56.1094C205.667 55.8906 206.578 55.5729 207.516 55.1562V58.1406C206.651 58.5469 205.771 58.8438 204.875 59.0312C203.979 59.2188 202.906 59.3125 201.656 59.3125C199.958 59.3125 198.464 58.9844 197.172 58.3281C195.891 57.6615 194.885 56.6719 194.156 55.3594C193.438 54.0469 193.078 52.4167 193.078 50.4688C193.078 48.5312 193.406 46.8854 194.062 45.5312C194.719 44.1771 195.641 43.1458 196.828 42.4375C198.016 41.7292 199.401 41.375 200.984 41.375ZM200.984 44.1406C199.828 44.1406 198.891 44.5156 198.172 45.2656C197.464 46.0156 197.047 47.1146 196.922 48.5625H204.797C204.786 47.6979 204.641 46.9323 204.359 46.2656C204.089 45.599 203.672 45.0781 203.109 44.7031C202.557 44.3281 201.849 44.1406 200.984 44.1406ZM231.719 41.375C233.771 41.375 235.417 42.125 236.656 43.625C237.906 45.125 238.531 47.3542 238.531 50.3125C238.531 52.2708 238.24 53.9219 237.656 55.2656C237.083 56.599 236.276 57.6094 235.234 58.2969C234.203 58.974 233 59.3125 231.625 59.3125C230.75 59.3125 229.99 59.1979 229.344 58.9688C228.698 58.7396 228.146 58.4427 227.688 58.0781C227.229 57.7031 226.844 57.2969 226.531 56.8594H226.312C226.365 57.276 226.411 57.7396 226.453 58.25C226.505 58.75 226.531 59.2083 226.531 59.625V66.6719H222.844V41.7031H225.844L226.359 44.0938H226.531C226.854 43.6042 227.245 43.151 227.703 42.7344C228.172 42.3177 228.734 41.9896 229.391 41.75C230.057 41.5 230.833 41.375 231.719 41.375ZM230.734 44.375C229.724 44.375 228.911 44.5781 228.297 44.9844C227.693 45.3802 227.25 45.9792 226.969 46.7812C226.698 47.5833 226.552 48.5885 226.531 49.7969V50.3125C226.531 51.5938 226.661 52.6823 226.922 53.5781C227.193 54.4635 227.635 55.1406 228.25 55.6094C228.875 56.0677 229.719 56.2969 230.781 56.2969C231.677 56.2969 232.417 56.0521 233 55.5625C233.594 55.0729 234.036 54.375 234.328 53.4688C234.62 52.5625 234.766 51.4948 234.766 50.2656C234.766 48.401 234.432 46.9531 233.766 45.9219C233.109 44.8906 232.099 44.375 230.734 44.375ZM247.469 59H243.781V34.6875H247.469V59ZM260.5 41.375C262.688 41.375 264.339 41.8594 265.453 42.8281C266.578 43.7969 267.141 45.3073 267.141 47.3594V59H264.531L263.828 56.5469H263.703C263.214 57.1719 262.708 57.6875 262.188 58.0938C261.667 58.5 261.062 58.8021 260.375 59C259.698 59.2083 258.87 59.3125 257.891 59.3125C256.859 59.3125 255.938 59.125 255.125 58.75C254.312 58.3646 253.672 57.7812 253.203 57C252.734 56.2188 252.5 55.2292 252.5 54.0312C252.5 52.25 253.161 50.9115 254.484 50.0156C255.818 49.1198 257.828 48.625 260.516 48.5312L263.516 48.4219V47.5156C263.516 46.3177 263.234 45.4635 262.672 44.9531C262.12 44.4427 261.339 44.1875 260.328 44.1875C259.464 44.1875 258.625 44.3125 257.812 44.5625C257 44.8125 256.208 45.1198 255.438 45.4844L254.25 42.8906C255.094 42.4427 256.052 42.0781 257.125 41.7969C258.208 41.5156 259.333 41.375 260.5 41.375ZM263.5 50.7344L261.266 50.8125C259.432 50.875 258.146 51.1875 257.406 51.75C256.667 52.3125 256.297 53.0833 256.297 54.0625C256.297 54.9167 256.552 55.5417 257.062 55.9375C257.573 56.3229 258.245 56.5156 259.078 56.5156C260.349 56.5156 261.401 56.1562 262.234 55.4375C263.078 54.7083 263.5 53.6406 263.5 52.2344V50.7344ZM270.672 41.7031H274.672L278.219 51.5781C278.375 52.026 278.516 52.4688 278.641 52.9062C278.776 53.3333 278.891 53.7552 278.984 54.1719C279.089 54.5885 279.172 55.0052 279.234 55.4219H279.328C279.432 54.8802 279.578 54.276 279.766 53.6094C279.964 52.9323 280.182 52.2552 280.422 51.5781L283.828 41.7031H287.781L280.359 61.375C279.932 62.5 279.406 63.4583 278.781 64.25C278.167 65.0521 277.438 65.6562 276.594 66.0625C275.75 66.4792 274.786 66.6875 273.703 66.6875C273.182 66.6875 272.729 66.6562 272.344 66.5938C271.958 66.5417 271.63 66.4844 271.359 66.4219V63.4844C271.578 63.5365 271.854 63.5833 272.188 63.625C272.521 63.6667 272.865 63.6875 273.219 63.6875C273.875 63.6875 274.443 63.5573 274.922 63.2969C275.401 63.0365 275.807 62.6667 276.141 62.1875C276.474 61.7188 276.75 61.1823 276.969 60.5781L277.578 58.9531L270.672 41.7031Z" fill="black"/>
<defs>
<linearGradient id="paint0_linear_593_578" x1="52.649" y1="6.12506" x2="16.3559" y2="69.7918" gradientUnits="userSpaceOnUse">
<stop stop-color="#00A0FF"/>
<stop offset="0.0066" stop-color="#00A1FF"/>
<stop offset="0.2601" stop-color="#00BEFF"/>
<stop offset="0.5122" stop-color="#00D2FF"/>
<stop offset="0.7604" stop-color="#00DFFF"/>
<stop offset="1" stop-color="#00E3FF"/>
</linearGradient>
<linearGradient id="paint1_linear_593_578" x1="61.8238" y1="34.5103" x2="-73.8806" y2="34.5103" gradientUnits="userSpaceOnUse">
<stop stop-color="#FFE000"/>
<stop offset="0.4087" stop-color="#FFBD00"/>
<stop offset="0.7754" stop-color="#FFA500"/>
<stop offset="1" stop-color="#FF9C00"/>
</linearGradient>
<linearGradient id="paint2_linear_593_578" x1="49.6555" y1="77.2461" x2="-54.9425" y2="150.185" gradientUnits="userSpaceOnUse">
<stop stop-color="#FF3A44"/>
<stop offset="1" stop-color="#C31162"/>
</linearGradient>
<linearGradient id="paint3_linear_593_578" x1="-6.10357" y1="83.0511" x2="18.7878" y2="57.9695" gradientUnits="userSpaceOnUse">
<stop stop-color="#32A071"/>
<stop offset="0.0685" stop-color="#2DA771"/>
<stop offset="0.4762" stop-color="#15CF74"/>
<stop offset="0.8009" stop-color="#06E775"/>
<stop offset="1" stop-color="#00F076"/>
</linearGradient>
</defs>
</svg>
