<svg width="132" height="97" viewBox="0 0 132 97" fill="none" xmlns="http://www.w3.org/2000/svg">
<path d="M42 17C87 17 87 91.88 132 95" stroke="white" stroke-width="5" stroke-dasharray="10"/>
<path d="M1.53214 1.53117C2.11817 0.945321 2.91288 0.616211 3.74152 0.616211C4.57016 0.616211 5.36487 0.945321 5.9509 1.53117L17.0009 12.5812L28.0509 1.53117C28.6403 0.961924 29.4297 0.646942 30.249 0.654062C31.0684 0.661182 31.8522 0.989835 32.4316 1.56924C33.011 2.14864 33.3396 2.93243 33.3468 3.75179C33.3539 4.57116 33.0389 5.36054 32.4696 5.94992L21.4196 16.9999L32.4696 28.0499C33.0389 28.6393 33.3539 29.4287 33.3468 30.248C33.3396 31.0674 33.011 31.8512 32.4316 32.4306C31.8522 33.01 31.0684 33.3387 30.249 33.3458C29.4297 33.3529 28.6403 33.0379 28.0509 32.4687L17.0009 21.4187L5.9509 32.4687C5.36151 33.0379 4.57213 33.3529 3.75277 33.3458C2.9334 33.3387 2.14961 33.01 1.57021 32.4306C0.990812 31.8512 0.662159 31.0674 0.655039 30.248C0.647919 29.4287 0.962901 28.6393 1.53214 28.0499L12.5821 16.9999L1.53214 5.94992C0.946298 5.36389 0.617188 4.56918 0.617188 3.74054C0.617188 2.91191 0.946298 2.11719 1.53214 1.53117Z" fill="#FF3A44"/>
</svg>
