<svg width="152" height="106" viewBox="0 0 152 106" fill="none" xmlns="http://www.w3.org/2000/svg">
<path d="M111.532 9.53117C112.118 8.94532 112.913 8.61621 113.742 8.61621C114.57 8.61621 115.365 8.94532 115.951 9.53117L127.001 20.5812L138.051 9.53117C138.64 8.96192 139.43 8.64694 140.249 8.65406C141.068 8.66118 141.852 8.98984 142.432 9.56924C143.011 10.1486 143.34 10.9324 143.347 11.7518C143.354 12.5712 143.039 13.3605 142.47 13.9499L131.42 24.9999L142.47 36.0499C143.039 36.6393 143.354 37.4287 143.347 38.248C143.34 39.0674 143.011 39.8512 142.432 40.4306C141.852 41.01 141.068 41.3387 140.249 41.3458C139.43 41.3529 138.64 41.0379 138.051 40.4687L127.001 29.4187L115.951 40.4687C115.362 41.0379 114.572 41.3529 113.753 41.3458C112.933 41.3387 112.15 41.01 111.57 40.4306C110.991 39.8512 110.662 39.0674 110.655 38.248C110.648 37.4287 110.963 36.6393 111.532 36.0499L122.582 24.9999L111.532 13.9499C110.946 13.3639 110.617 12.5692 110.617 11.7405C110.617 10.9119 110.946 10.1172 111.532 9.53117Z" fill="#FF3A44"/>
<path d="M102 25C51.5 25 51.5 99.88 1 103" stroke="white" stroke-width="5" stroke-dasharray="10"/>
</svg>
