<svg xmlns="http://www.w3.org/2000/svg" width="289" height="69" fill="none" viewBox="0 0 289 69"><path fill="url(#a)" d="M1.645 3.972C.92 4.726.5 5.898.5 7.417v54.168c0 1.519.42 2.691 1.145 3.444l.179.166L32.41 34.853v-.716L1.824 3.795z"/><path fill="url(#b)" d="m42.6 44.972-10.185-10.12v-.716l10.197-10.119.228.132 12.075 6.818c3.447 1.936 3.447 5.12 0 7.067L42.84 44.84z"/><path fill="url(#c)" d="M42.83 44.84 32.407 34.495 1.64 65.029c1.144 1.194 3.01 1.338 5.133.144z"/><path fill="url(#d)" d="M42.83 24.15 6.775 3.815c-2.122-1.181-3.989-1.037-5.133.157l30.765 30.522z"/><path fill="#000" d="M104.751 12.268h4.491v6.231q-1.01.344-2.083.51-1.063.167-2.382.167-2.004 0-3.383-.8-1.372-.8-2.084-2.276-.711-1.485-.711-3.525 0-1.995.782-3.48a5.56 5.56 0 0 1 2.276-2.303q1.494-.825 3.586-.826 1.073 0 2.03.202a8.8 8.8 0 0 1 1.793.554l-.571 1.3q-.712-.307-1.573-.527a7 7 0 0 0-1.767-.22q-1.573 0-2.698.65a4.33 4.33 0 0 0-1.714 1.838q-.588 1.185-.589 2.812 0 1.609.519 2.804a3.94 3.94 0 0 0 1.617 1.846q1.099.66 2.83.659.87 0 1.494-.097.624-.105 1.134-.246v-3.937h-2.997zm12.092-3.077q1.23 0 2.109.545a3.53 3.53 0 0 1 1.345 1.53q.466.975.466 2.285v.905h-6.654q.027 1.696.844 2.584.818.888 2.303.888.913 0 1.617-.167a9 9 0 0 0 1.459-.492v1.283q-.73.325-1.45.474a8.3 8.3 0 0 1-1.688.15q-1.388 0-2.425-.563-1.029-.57-1.6-1.67-.571-1.098-.571-2.69 0-1.555.518-2.688.528-1.143 1.477-1.758.957-.616 2.25-.616m-.018 1.196q-1.168 0-1.863.764-.694.765-.826 2.136h5.097q-.008-.861-.272-1.512-.255-.66-.782-1.02-.528-.368-1.354-.368m10.528 7.593q.36 0 .738-.061a3.4 3.4 0 0 0 .615-.15v1.134q-.255.114-.712.194-.448.078-.879.079a3.5 3.5 0 0 1-1.388-.264q-.624-.272-1.002-.914-.37-.642-.37-1.775V10.51h-1.371v-.712l1.38-.571.58-2.092h.879v2.232h2.822v1.143h-2.822v5.669q0 .904.413 1.353.423.449 1.117.448m11.439-8.613V19h-1.459V9.367zm-.712-3.603q.36 0 .615.237.264.229.264.72 0 .484-.264.721a.87.87 0 0 1-.615.238.9.9 0 0 1-.633-.238q-.246-.237-.246-.72 0-.492.246-.721a.9.9 0 0 1 .633-.237m7.917 12.216q.36 0 .738-.061.378-.06.616-.15v1.134q-.255.114-.712.194-.449.078-.879.079-.765 0-1.389-.264-.624-.272-1.002-.914-.369-.642-.369-1.775V10.51h-1.371v-.712l1.38-.571.58-2.092h.879v2.232h2.821v1.143h-2.821v5.669q0 .904.413 1.353.422.449 1.116.448m18.286-3.814q0 1.187-.307 2.118-.308.932-.888 1.573a3.9 3.9 0 0 1-1.406.985q-.817.334-1.855.334a4.6 4.6 0 0 1-1.775-.334 4 4 0 0 1-1.389-.985q-.58-.641-.905-1.573-.317-.93-.317-2.118 0-1.582.537-2.69.536-1.116 1.529-1.696 1.002-.588 2.382-.589 1.318 0 2.302.59.994.588 1.538 1.704.554 1.108.554 2.681m-7.33 0q0 1.16.308 2.013.307.852.949 1.318t1.652.466q1.002 0 1.644-.466.65-.466.958-1.318.307-.854.307-2.013 0-1.152-.307-1.986-.308-.844-.949-1.301-.642-.457-1.661-.457-1.503 0-2.207.993-.693.994-.694 2.751m15.414-4.975q1.714 0 2.593.844.879.835.879 2.69V19h-1.442v-6.179q0-1.203-.553-1.801-.546-.598-1.679-.598-1.599 0-2.25.905-.65.906-.65 2.628V19h-1.459V9.367h1.177l.22 1.389h.079q.308-.51.782-.853.475-.351 1.064-.527a4.1 4.1 0 0 1 1.239-.185m-62.648 37.403h8.531v11.468a25.6 25.6 0 0 1-3.719.922q-1.922.329-4.312.328-3.485 0-5.907-1.374-2.406-1.392-3.656-4.016-1.25-2.64-1.25-6.36 0-3.578 1.391-6.203 1.39-2.64 4.047-4.078 2.656-1.453 6.437-1.453 1.86 0 3.594.375a15.8 15.8 0 0 1 3.203 1l-1.312 3.094a15 15 0 0 0-2.594-.922 11.8 11.8 0 0 0-2.984-.375q-2.454 0-4.235 1.063-1.765 1.062-2.719 3-.953 1.92-.953 4.546 0 2.547.766 4.47.765 1.92 2.391 3 1.64 1.061 4.234 1.062 1.297 0 2.203-.141a26 26 0 0 0 1.672-.312v-5.891h-4.828zm29.937 3.718q0 2.157-.562 3.829-.562 1.671-1.641 2.828a7.2 7.2 0 0 1-2.594 1.75q-1.516.594-3.421.593-1.782 0-3.266-.593a7.45 7.45 0 0 1-2.578-1.75q-1.078-1.157-1.672-2.828-.594-1.672-.594-3.828 0-2.86.984-4.844 1-2.001 2.844-3.047t4.391-1.047q2.39 0 4.219 1.047 1.828 1.047 2.859 3.047t1.031 4.843m-12.547 0q0 1.89.453 3.235.47 1.344 1.438 2.062.969.704 2.5.703 1.531 0 2.5-.703.969-.718 1.422-2.062t.453-3.234-.453-3.204q-.453-1.328-1.422-2.015-.969-.703-2.516-.703-2.28 0-3.328 1.53-1.047 1.532-1.047 4.392m33.079 0q0 2.157-.563 3.829-.562 1.671-1.641 2.828a7.2 7.2 0 0 1-2.593 1.75q-1.516.594-3.422.593-1.781 0-3.266-.593a7.45 7.45 0 0 1-2.578-1.75q-1.078-1.157-1.672-2.828-.594-1.672-.594-3.828 0-2.86.985-4.844.999-2.001 2.844-3.047 1.843-1.047 4.39-1.047 2.39 0 4.219 1.047 1.828 1.047 2.859 3.047 1.032 2 1.032 4.843m-12.547 0q0 1.89.453 3.235.468 1.344 1.437 2.062.969.704 2.5.703 1.531 0 2.5-.703.969-.718 1.422-2.062t.453-3.234-.453-3.204q-.453-1.328-1.422-2.015-.969-.703-2.515-.703-2.282 0-3.328 1.53-1.047 1.532-1.047 4.392m22.703 16.376q-3.516 0-5.391-1.266t-1.875-3.547q0-1.594 1-2.703 1-1.094 2.86-1.516a3.2 3.2 0 0 1-1.219-.968 2.42 2.42 0 0 1-.5-1.485q0-.969.547-1.656.546-.687 1.64-1.328-1.359-.578-2.187-1.875-.813-1.312-.813-3.078 0-1.875.797-3.188.797-1.328 2.328-2.016 1.531-.703 3.703-.703.469 0 1.016.063.563.047 1.031.125.484.063.735.14H180v2.047l-2.938.547q.423.594.672 1.36.25.75.25 1.64 0 2.688-1.859 4.235-1.844 1.53-5.094 1.53a18 18 0 0 1-1.515-.124q-.563.343-.86.766-.297.406-.297.921 0 .422.297.688.297.25.875.375.594.125 1.438.125h2.984q2.844 0 4.344 1.203t1.5 3.531q0 2.954-2.438 4.547-2.437 1.61-7.015 1.61m.14-2.579q1.923 0 3.235-.375t1.984-1.078a2.27 2.27 0 0 0 .672-1.64q0-.844-.422-1.297t-1.265-.625-2.094-.172h-2.719q-1.016 0-1.797.312-.781.33-1.219.938-.421.61-.421 1.469 0 1.186 1.046 1.828 1.064.64 3 .64m.719-13.468q1.61 0 2.391-.875.781-.89.781-2.5 0-1.75-.813-2.625-.796-.876-2.374-.875-1.548 0-2.36.89-.797.891-.797 2.64 0 1.58.797 2.47.813.875 2.375.875M187.844 59h-3.688V34.688h3.688zm13.14-17.625q2.313 0 3.969.953 1.656.954 2.547 2.703.891 1.75.891 4.188v1.968h-11.547q.062 2.517 1.344 3.876 1.296 1.359 3.624 1.359 1.657 0 2.969-.313a16.5 16.5 0 0 0 2.735-.953v2.985q-1.297.61-2.641.89-1.344.282-3.219.282-2.546 0-4.484-.985-1.922-1-3.016-2.969-1.077-1.968-1.078-4.89 0-2.907.984-4.938.986-2.031 2.766-3.093 1.782-1.063 4.156-1.063m0 2.766q-1.734 0-2.812 1.125-1.062 1.125-1.25 3.297h7.875q-.016-1.297-.438-2.297-.405-1-1.25-1.563-.828-.562-2.125-.562m30.735-2.766q3.078 0 4.937 2.25 1.875 2.25 1.875 6.688 0 2.937-.875 4.953-.86 2-2.422 3.03-1.547 1.017-3.609 1.017-1.312 0-2.281-.344a5.7 5.7 0 0 1-1.656-.89 6.4 6.4 0 0 1-1.157-1.22h-.219q.079.625.141 1.391.078.75.078 1.375v7.047h-3.687V41.703h3l.515 2.39h.172a7.2 7.2 0 0 1 1.172-1.359 5.2 5.2 0 0 1 1.688-.984q.999-.375 2.328-.375m-.985 3q-1.516 0-2.437.61-.906.593-1.328 1.796-.406 1.203-.438 3.016v.516q0 1.921.391 3.265.406 1.329 1.328 2.031.938.688 2.531.688 1.344 0 2.219-.734.89-.735 1.328-2.094.438-1.36.438-3.203 0-2.798-1-4.344-.985-1.547-3.032-1.547M247.469 59h-3.688V34.688h3.688zM260.5 41.375q3.282 0 4.953 1.453 1.688 1.454 1.688 4.531V59h-2.61l-.703-2.453h-.125a9 9 0 0 1-1.515 1.547 5.3 5.3 0 0 1-1.813.906q-1.015.313-2.484.313-1.547 0-2.766-.563a4.4 4.4 0 0 1-1.922-1.75q-.703-1.171-.703-2.969 0-2.672 1.984-4.015 2-1.344 6.032-1.485l3-.11v-.905q0-1.797-.844-2.563-.828-.765-2.344-.766-1.296 0-2.516.376-1.219.375-2.374.921l-1.188-2.593q1.266-.672 2.875-1.094a13.4 13.4 0 0 1 3.375-.422m3 9.36-2.234.078q-2.75.093-3.86.937t-1.109 2.313q0 1.281.765 1.874.766.579 2.016.579 1.906 0 3.156-1.078 1.266-1.094 1.266-3.204zm7.172-9.032h4l3.547 9.875q.234.672.422 1.328.203.641.343 1.266.157.625.25 1.25h.094q.156-.813.438-1.813.296-1.016.656-2.03l3.406-9.876h3.953l-7.422 19.672q-.64 1.687-1.578 2.875-.921 1.203-2.187 1.813-1.266.624-2.891.624-.782 0-1.359-.093a11 11 0 0 1-.985-.172v-2.938q.328.079.829.141.5.063 1.031.063.984 0 1.703-.391.718-.39 1.219-1.11a6.7 6.7 0 0 0 .828-1.609l.609-1.625z"/><defs><linearGradient id="a" x1="52.649" x2="16.3559" y1="6.12506" y2="69.7918" gradientUnits="userSpaceOnUse"><stop stop-color="#00A0FF"/><stop offset="0.0066" stop-color="#00A1FF"/><stop offset="0.2601" stop-color="#00BEFF"/><stop offset="0.5122" stop-color="#00D2FF"/><stop offset="0.7604" stop-color="#00DFFF"/><stop offset="1" stop-color="#00E3FF"/></linearGradient><linearGradient id="b" x1="61.8238" x2="-73.8806" y1="34.5103" y2="34.5103" gradientUnits="userSpaceOnUse"><stop stop-color="#FFE000"/><stop offset="0.4087" stop-color="#FFBD00"/><stop offset="0.7754" stop-color="orange"/><stop offset="1" stop-color="#FF9C00"/></linearGradient><linearGradient id="c" x1="49.6555" x2="-54.9425" y1="77.2461" y2="150.185" gradientUnits="userSpaceOnUse"><stop stop-color="#FF3A44"/><stop offset="1" stop-color="#C31162"/></linearGradient><linearGradient id="d" x1="-6.10357" x2="18.7878" y1="83.0511" y2="57.9695" gradientUnits="userSpaceOnUse"><stop stop-color="#32A071"/><stop offset="0.0685" stop-color="#2DA771"/><stop offset="0.4762" stop-color="#15CF74"/><stop offset="0.8009" stop-color="#06E775"/><stop offset="1" stop-color="#00F076"/></linearGradient></defs></svg>