<svg aria-hidden="true" style="position: absolute; width: 0; height: 0; overflow: hidden;" version="1.1" xmlns="http://www.w3.org/2000/svg" xmlns:xlink="http://www.w3.org/1999/xlink">
<defs>
<symbol id="arrow-down" viewBox="0 0 32 32">
<path fill="#fff" style="fill: var(--color1, #fff)" d="M16.943 20.943c-0.25 0.25-0.589 0.39-0.943 0.39s-0.693-0.14-0.943-0.39l-7.543-7.543c-0.127-0.123-0.229-0.27-0.299-0.433s-0.107-0.338-0.108-0.515c-0.002-0.177 0.032-0.353 0.099-0.516s0.166-0.313 0.291-0.438 0.274-0.224 0.438-0.291c0.164-0.067 0.339-0.101 0.516-0.099s0.352 0.038 0.515 0.108 0.31 0.171 0.433 0.299l6.6 6.6 6.6-6.6c0.251-0.243 0.588-0.377 0.938-0.374s0.684 0.143 0.931 0.391c0.247 0.247 0.387 0.582 0.39 0.931s-0.131 0.686-0.374 0.938l-7.543 7.543z"></path>
</symbol>
<symbol id="arrow-up" viewBox="0 0 32 32">
<path fill="#fff" style="fill: var(--color1, #fff)" d="M15.057 11.057c0.25-0.25 0.589-0.39 0.943-0.39s0.693 0.14 0.943 0.39l7.543 7.543c0.127 0.123 0.229 0.27 0.299 0.433s0.107 0.338 0.108 0.515c0.002 0.177-0.032 0.353-0.099 0.516s-0.166 0.313-0.291 0.438-0.274 0.224-0.438 0.291c-0.164 0.067-0.339 0.101-0.516 0.099s-0.352-0.038-0.515-0.108-0.31-0.171-0.433-0.299l-6.6-6.6-6.6 6.6c-0.251 0.243-0.588 0.377-0.938 0.374s-0.684-0.143-0.931-0.391c-0.247-0.247-0.387-0.582-0.39-0.931s0.131-0.686 0.374-0.938l7.543-7.543z"></path>
</symbol>
<symbol id="clock" viewBox="0 0 32 32">
<path fill="none" stroke="#fff" style="stroke: var(--color1, #fff)" stroke-linejoin="round" stroke-linecap="round" stroke-miterlimit="4" stroke-width="1.92" d="M16 29.333c7.364 0 13.333-5.97 13.333-13.333s-5.97-13.333-13.333-13.333-13.333 5.97-13.333 13.333c0 7.364 5.97 13.333 13.333 13.333z"></path>
<path fill="none" stroke="#fff" style="stroke: var(--color1, #fff)" stroke-linejoin="round" stroke-linecap="round" stroke-miterlimit="4" stroke-width="1.92" d="M16 9.333v6.667l4 4"></path>
</symbol>
<symbol id="epic-games" viewBox="0 0 32 32">
<path fill="#fff" style="fill: var(--color1, #fff)" d="M4.719 0c-1.833 0-2.505 0.677-2.505 2.505v22.083c0.001 0.209 0.010 0.402 0.027 0.579 0.047 0.401 0.047 0.792 0.421 1.229 0.036 0.052 0.412 0.328 0.412 0.328 0.203 0.099 0.343 0.172 0.572 0.265l11.115 4.656c0.573 0.261 0.819 0.371 1.235 0.355h0.005c0.421 0.016 0.667-0.093 1.24-0.355l11.109-4.656c0.235-0.093 0.369-0.167 0.577-0.265 0 0 0.376-0.287 0.412-0.328 0.375-0.437 0.375-0.828 0.421-1.229 0.017-0.177 0.026-0.368 0.027-0.573v-22.088c0-1.828-0.677-2.505-2.505-2.505l-22.563-0.001zM22.527 4.145h0.905c1.511 0 2.251 0.735 2.251 2.267v2.505h-1.833v-2.407c0-0.489-0.224-0.713-0.699-0.713h-0.312c-0.489 0-0.713 0.224-0.713 0.713v7.749c0 0.489 0.224 0.713 0.713 0.713h0.349c0.468 0 0.692-0.224 0.692-0.713v-2.771h1.833v2.86c0 1.525-0.749 2.276-2.265 2.276h-0.921c-1.521 0-2.267-0.756-2.267-2.276v-7.923c0-1.525 0.745-2.28 2.267-2.28zM6.276 4.251h4.151v1.703h-2.287v3.468h2.204v1.699h-2.204v3.697h2.319v1.704h-4.183v-12.271zM11.364 4.251h2.928c1.515 0 2.265 0.755 2.265 2.28v3.261c0 1.525-0.751 2.276-2.265 2.276h-1.057v4.453h-1.871v-12.27zM17.401 4.251h1.864v12.271h-1.864v-12.271zM13.229 5.901v4.52h0.771c0.469 0 0.693-0.228 0.693-0.719v-3.083c0-0.489-0.224-0.719-0.693-0.719l-0.771 0.001zM8.088 19.437h0.276l0.063 0.011h0.1l0.052 0.016h0.052l0.047 0.015 0.052 0.011 0.041 0.011 0.093 0.021 0.053 0.015 0.036 0.011 0.041 0.016 0.052 0.016 0.036 0.015 0.053 0.021 0.047 0.021 0.041 0.025 0.047 0.021 0.036 0.025 0.053 0.027 0.041 0.025 0.041 0.021 0.041 0.031 0.043 0.027 0.036 0.031 0.125 0.095-0.032 0.041-0.036 0.036-0.032 0.037-0.036 0.041-0.025 0.036-0.032 0.037-0.036 0.036-0.032 0.041-0.025 0.036-0.068 0.079-0.036 0.041-0.032 0.037-0.025 0.041-0.037 0.036-0.031 0.043-0.036 0.036-0.032 0.036-0.036-0.025-0.041-0.037-0.043-0.025-0.077-0.052-0.047-0.027-0.043-0.025-0.047-0.027-0.036-0.021-0.041-0.020-0.084-0.032-0.052-0.009-0.041-0.011-0.047-0.011-0.053-0.011-0.052-0.005h-0.052l-0.061-0.011h-0.1l-0.052 0.005h-0.052l-0.052 0.016-0.041 0.011-0.047 0.016-0.047 0.009-0.043 0.021-0.052 0.021-0.072 0.052-0.043 0.025-0.036 0.032-0.036 0.025-0.037 0.032-0.025 0.036-0.043 0.036-0.052 0.073-0.025 0.041-0.021 0.047-0.025 0.037-0.027 0.047-0.016 0.047-0.020 0.041-0.016 0.052-0.005 0.052-0.015 0.048-0.011 0.052v0.052l-0.005 0.052v0.12l0.005 0.052v0.041l0.005 0.052 0.009 0.047 0.016 0.041 0.005 0.053 0.016 0.041 0.015 0.036 0.021 0.052 0.027 0.052 0.020 0.037 0.052 0.083 0.032 0.041 0.025 0.037 0.043 0.031 0.025 0.036 0.036 0.032 0.084 0.063 0.036 0.020 0.041 0.027 0.048 0.021 0.052 0.020 0.036 0.021 0.104 0.031 0.047 0.005 0.052 0.016 0.052 0.005h0.224l0.063-0.005h0.047l0.053-0.021 0.052-0.005 0.052-0.015 0.041-0.011 0.047-0.021 0.041-0.020 0.047-0.021 0.032-0.021 0.041-0.025v-0.464h-0.735v-0.744h1.661v1.667l-0.036 0.025-0.036 0.031-0.037 0.027-0.041 0.031-0.041 0.021-0.036 0.032-0.084 0.052-0.052 0.025-0.083 0.052-0.053 0.021-0.041 0.020-0.047 0.021-0.104 0.041-0.041 0.021-0.095 0.031-0.047 0.011-0.047 0.016-0.052 0.016-0.041 0.009-0.156 0.032-0.152 0.016-0.057 0.005-0.052 0.004-0.057 0.005h-0.26l-0.052-0.009h-0.052l-0.052-0.011h-0.047l-0.052-0.016-0.152-0.031-0.041-0.016-0.047-0.005-0.052-0.021-0.095-0.031-0.093-0.041-0.052-0.021-0.036-0.021-0.052-0.020-0.037-0.032-0.052-0.020-0.031-0.027-0.041-0.025-0.084-0.063-0.041-0.027-0.032-0.031-0.041-0.032-0.068-0.067-0.036-0.032-0.031-0.036-0.037-0.037-0.025-0.041-0.032-0.031-0.025-0.043-0.032-0.041-0.025-0.036-0.027-0.041-0.025-0.048-0.021-0.041-0.021-0.047-0.020-0.041-0.041-0.095-0.016-0.036-0.021-0.047-0.011-0.047-0.009-0.041-0.011-0.052-0.016-0.048-0.011-0.052-0.005-0.041-0.009-0.052-0.011-0.093-0.011-0.104v-0.276l0.011-0.053v-0.052l0.016-0.052v-0.052l0.015-0.047 0.016-0.052 0.021-0.093 0.015-0.052 0.016-0.047 0.063-0.141 0.020-0.041 0.021-0.047 0.027-0.048 0.020-0.041 0.027-0.036 0.052-0.084 0.031-0.041 0.032-0.036 0.025-0.041 0.068-0.068 0.031-0.037 0.037-0.036 0.031-0.036 0.043-0.032 0.072-0.063 0.041-0.031 0.043-0.027 0.036-0.031 0.041-0.027 0.043-0.020 0.047-0.027 0.052-0.025 0.036-0.027 0.052-0.020 0.047-0.021 0.047-0.025 0.043-0.011 0.052-0.016 0.041-0.021 0.047-0.009 0.047-0.016 0.052-0.011 0.043-0.016 0.052-0.011h0.052l0.047-0.015h0.052l0.052-0.011h0.047l0.041-0.007zM24.073 19.448h0.276l0.063 0.011h0.099l0.052 0.015h0.057l0.052 0.016 0.093 0.021 0.052 0.011 0.047 0.009 0.053 0.016 0.047 0.016 0.041 0.011 0.047 0.015 0.052 0.016 0.041 0.021 0.052 0.020 0.048 0.021 0.047 0.027 0.036 0.020 0.047 0.027 0.047 0.020 0.043 0.027 0.047 0.031 0.12 0.090 0.041 0.025-0.032 0.041-0.025 0.043-0.031 0.036-0.032 0.041-0.025 0.047-0.027 0.043-0.031 0.036-0.032 0.041-0.025 0.043-0.032 0.041-0.025 0.036-0.032 0.041-0.025 0.048-0.032 0.041-0.031 0.036-0.032 0.041-0.025 0.043-0.041-0.032-0.048-0.025-0.036-0.027-0.041-0.025-0.047-0.021-0.043-0.027-0.047-0.020-0.036-0.021-0.052-0.020-0.037-0.021-0.041-0.016-0.093-0.031-0.104-0.032-0.156-0.031-0.052-0.005-0.095-0.011h-0.109l-0.057 0.011-0.052 0.011-0.047 0.011-0.041 0.020-0.037 0.021-0.041 0.036-0.031 0.047-0.021 0.048v0.124l0.027 0.057 0.020 0.032 0.032 0.031 0.052 0.027 0.041 0.025 0.047 0.021 0.052 0.020 0.068 0.016 0.036 0.016 0.043 0.011 0.052 0.011 0.041 0.015 0.047 0.011 0.057 0.016 0.052 0.016 0.057 0.015 0.057 0.011 0.047 0.016 0.057 0.015 0.052 0.011 0.047 0.011 0.157 0.047 0.041 0.016 0.052 0.016 0.047 0.020 0.052 0.027 0.104 0.041 0.047 0.027 0.084 0.052 0.077 0.057 0.048 0.031 0.036 0.036 0.036 0.043 0.037 0.036 0.025 0.036 0.037 0.052 0.025 0.037 0.021 0.052 0.020 0.031 0.016 0.052 0.016 0.043 0.011 0.047 0.020 0.104 0.005 0.052 0.005 0.047v0.125l-0.005 0.057-0.011 0.104-0.011 0.052-0.015 0.047-0.011 0.052-0.016 0.052-0.015 0.047-0.021 0.037-0.021 0.047-0.025 0.041-0.032 0.037-0.052 0.083-0.063 0.073-0.036 0.025-0.041 0.037-0.032 0.031-0.041 0.031-0.041 0.021-0.041 0.032-0.048 0.025-0.093 0.047-0.052 0.021-0.047 0.020-0.052 0.016-0.047 0.016-0.043 0.011-0.104 0.020-0.036 0.011-0.052 0.011h-0.052l-0.047 0.011h-0.052l-0.052 0.011h-0.371l-0.156-0.016-0.052-0.011-0.047-0.005-0.161-0.031-0.047-0.011-0.052-0.016-0.053-0.011-0.047-0.015-0.052-0.016-0.052-0.021-0.041-0.015-0.052-0.016-0.052-0.021-0.037-0.020-0.052-0.016-0.041-0.027-0.052-0.020-0.041-0.027-0.037-0.025-0.052-0.027-0.036-0.020-0.041-0.032-0.041-0.025-0.043-0.032-0.036-0.031-0.041-0.032-0.037-0.025-0.041-0.037 0.032-0.041 0.036-0.036 0.031-0.037 0.037-0.041 0.025-0.036 0.032-0.041 0.036-0.037 0.031-0.036 0.037-0.041 0.025-0.037 0.037-0.036 0.031-0.041 0.032-0.037 0.036-0.041 0.025-0.036 0.037-0.037 0.036-0.041 0.036 0.032 0.048 0.031 0.036 0.031 0.052 0.027 0.036 0.027 0.047 0.031 0.043 0.027 0.047 0.020 0.036 0.027 0.047 0.015 0.052 0.021 0.043 0.021 0.047 0.015 0.041 0.021 0.052 0.016 0.047 0.015 0.052 0.016 0.052 0.005 0.048 0.016 0.052 0.005h0.057l0.047 0.015h0.281l0.047-0.009 0.052-0.011 0.036-0.005 0.043-0.016 0.036-0.020 0.047-0.032 0.027-0.036 0.020-0.041 0.016-0.048v-0.12l-0.021-0.047-0.025-0.041-0.032-0.031-0.047-0.032-0.036-0.015-0.047-0.021-0.052-0.021-0.057-0.025-0.037-0.011-0.041-0.011-0.052-0.016-0.036-0.009-0.052-0.016-0.052-0.005-0.053-0.021-0.052-0.005-0.057-0.015-0.047-0.011-0.052-0.016-0.052-0.011-0.052-0.015-0.047-0.016-0.052-0.011-0.041-0.016-0.095-0.031-0.052-0.021-0.052-0.015-0.104-0.043-0.047-0.025-0.052-0.027-0.036-0.025-0.048-0.027-0.036-0.025-0.047-0.027-0.068-0.068-0.036-0.031-0.063-0.073-0.027-0.036-0.020-0.036-0.032-0.048-0.015-0.036-0.048-0.125-0.009-0.052-0.011-0.047v-0.047l-0.011-0.052v-0.213l0.011-0.104 0.011-0.043 0.009-0.047 0.016-0.041 0.011-0.052 0.021-0.036 0.020-0.053 0.021-0.041 0.020-0.052 0.027-0.036 0.036-0.041 0.027-0.043 0.041-0.036 0.031-0.036 0.032-0.043 0.047-0.036 0.032-0.027 0.041-0.031 0.083-0.052 0.047-0.027 0.095-0.047 0.041-0.015 0.047-0.016 0.052-0.021 0.052-0.015 0.037-0.011 0.047-0.011 0.041-0.011 0.047-0.011 0.052-0.011 0.104-0.009 0.048-0.005 0.041-0.020zM11.755 19.484h0.943l0.043 0.095 0.020 0.041 0.016 0.052 0.021 0.047 0.015 0.041 0.027 0.047 0.031 0.095 0.027 0.047 0.041 0.093 0.011 0.041 0.083 0.188 0.016 0.047 0.021 0.043 0.025 0.047 0.011 0.047 0.027 0.052 0.009 0.047 0.048 0.093 0.020 0.037 0.021 0.052 0.016 0.052 0.015 0.036 0.027 0.052 0.016 0.043 0.020 0.052 0.016 0.036 0.021 0.052 0.047 0.093 0.015 0.047 0.011 0.048 0.021 0.047 0.025 0.041 0.021 0.052 0.021 0.047 0.015 0.041 0.043 0.095 0.015 0.047 0.021 0.047 0.016 0.047 0.020 0.041 0.027 0.048 0.020 0.047 0.021 0.041 0.011 0.052 0.041 0.093 0.021 0.043 0.015 0.047 0.043 0.093 0.025 0.052 0.011 0.041 0.027 0.053 0.009 0.036 0.021 0.052 0.027 0.052 0.020 0.036 0.016 0.052 0.021 0.043 0.015 0.052 0.027 0.036 0.031 0.104 0.021 0.037 0.020 0.052 0.027 0.041 0.021 0.052 0.009 0.047 0.016 0.041 0.021 0.047 0.025 0.043h-1.041l-0.025-0.043-0.016-0.047-0.021-0.047-0.020-0.052-0.011-0.041-0.043-0.093-0.015-0.043-0.041-0.093-0.016-0.041-0.021-0.052-0.031-0.095-0.021-0.041h-1.448l-0.020 0.047-0.016 0.043-0.021 0.052-0.020 0.047-0.011 0.041-0.021 0.052-0.020 0.041-0.016 0.047-0.021 0.043-0.020 0.052-0.016 0.036-0.021 0.052-0.015 0.052-0.021 0.037-0.016 0.052h-1.031l0.015-0.048 0.043-0.093 0.015-0.052 0.016-0.041 0.027-0.047 0.020-0.047 0.021-0.043 0.011-0.047 0.020-0.052 0.027-0.041 0.020-0.047 0.032-0.095 0.047-0.093 0.016-0.047 0.020-0.041 0.016-0.048 0.063-0.14 0.021-0.052 0.015-0.041 0.016-0.047 0.027-0.043 0.020-0.052 0.016-0.047 0.016-0.041 0.020-0.052 0.027-0.037 0.016-0.052 0.020-0.041 0.016-0.047 0.021-0.052 0.025-0.041 0.016-0.052 0.020-0.037 0.016-0.052 0.021-0.052 0.020-0.036 0.021-0.052 0.016-0.043 0.020-0.052 0.016-0.036 0.027-0.052 0.020-0.052 0.021-0.041 0.011-0.047 0.020-0.048 0.027-0.047 0.020-0.041 0.011-0.052 0.021-0.047 0.021-0.043 0.041-0.093 0.015-0.041 0.043-0.104 0.020-0.037 0.021-0.052 0.016-0.041 0.015-0.052 0.021-0.047 0.027-0.041 0.020-0.052 0.016-0.037 0.016-0.052 0.020-0.041 0.027-0.047 0.016-0.052 0.015-0.043 0.021-0.052 0.020-0.036 0.027-0.052 0.016-0.052 0.015-0.036 0.021-0.052 0.030-0.046zM14.683 19.511h1.031l0.032 0.041 0.052 0.084 0.025 0.047 0.027 0.036 0.025 0.047 0.027 0.041 0.025 0.048 0.027 0.041 0.025 0.036 0.027 0.047 0.025 0.043 0.037 0.041 0.015 0.041 0.032 0.047 0.025 0.043 0.032 0.036 0.021 0.047 0.025 0.041 0.032 0.043 0.015 0.041 0.037 0.047 0.077 0.125 0.021 0.041 0.031 0.041 0.027 0.041 0.025 0.048 0.079 0.124 0.025 0.048 0.027 0.041 0.031-0.041 0.021-0.053 0.031-0.036 0.027-0.047 0.025-0.036 0.021-0.052 0.036-0.037 0.027-0.047 0.021-0.036 0.025-0.043 0.032-0.047 0.025-0.036 0.027-0.052 0.025-0.036 0.032-0.048 0.020-0.036 0.027-0.052 0.025-0.031 0.027-0.043 0.031-0.052 0.027-0.036 0.020-0.047 0.032-0.037 0.025-0.052 0.027-0.031 0.031-0.041 0.027-0.052 0.025-0.037 0.027-0.047 0.025-0.036 0.027-0.052 0.031-0.037 0.021-0.047 0.027-0.036h1.047v3.719h-0.98v-2.188l-0.025 0.037-0.032 0.052-0.025 0.031-0.032 0.041-0.020 0.052-0.032 0.037-0.025 0.036-0.032 0.052-0.052 0.073-0.031 0.041-0.027 0.052-0.031 0.037-0.027 0.036-0.020 0.052-0.032 0.036-0.025 0.037-0.032 0.052-0.025 0.036-0.032 0.041-0.025 0.047-0.021 0.037-0.031 0.041-0.027 0.047-0.031 0.036-0.032 0.043-0.020 0.041-0.027 0.047-0.031 0.037-0.032 0.041-0.020 0.052-0.037 0.031-0.020 0.041-0.032 0.053-0.025 0.036h-0.021l-0.031-0.047-0.027-0.043-0.025-0.047-0.027-0.036-0.058-0.088-0.031-0.043-0.027-0.041-0.025-0.047-0.063-0.084-0.021-0.041-0.031-0.047-0.027-0.036-0.025-0.047-0.032-0.043-0.025-0.052-0.032-0.036-0.025-0.047-0.027-0.043-0.025-0.047-0.032-0.036-0.025-0.047-0.032-0.041-0.020-0.043-0.032-0.041-0.025-0.047-0.032-0.036-0.025-0.048-0.032-0.041-0.020-0.047-0.037-0.036-0.020-0.048-0.032-0.041v2.193h-0.963v-3.683l-0.006-0.033zM19.307 19.511h2.933v0.839h-1.959v0.599h1.76v0.792h-1.76v0.635h1.984v0.844h-2.953v-3.677l-0.005-0.032zM12.213 20.651l-0.016 0.047-0.015 0.043-0.021 0.052-0.021 0.047-0.015 0.047-0.043 0.093-0.020 0.052-0.016 0.043-0.016 0.052-0.020 0.036-0.016 0.052-0.021 0.052-0.020 0.037-0.016 0.052-0.020 0.041-0.016 0.052-0.027 0.047-0.011 0.041-0.020 0.052-0.021 0.048-0.016 0.041-0.020 0.052h0.859l-0.020-0.052-0.016-0.047-0.041-0.095-0.016-0.047-0.021-0.041-0.015-0.052-0.021-0.047-0.016-0.047-0.020-0.043-0.016-0.047-0.021-0.052-0.015-0.041-0.043-0.093-0.009-0.048-0.021-0.047-0.021-0.052-0.015-0.036-0.043-0.104-0.015-0.047-0.027-0.041zM10.683 27.615h10.681l-5.452 1.797-5.229-1.797z"></path>
</symbol>
<symbol id="arrow-left" viewBox="0 0 32 32">
<path fill="#fff" style="fill: var(--color1, #fff)" d="M20.267 26c-0.14 0.002-0.279-0.024-0.407-0.076s-0.244-0.128-0.339-0.224l-9.596-9c-0.427-0.4-0.427-1.020 0-1.42l9.596-8.98c0.426-0.4 1.088-0.4 1.514 0s0.427 1.020 0 1.42l-8.85 8.28 8.85 8.3c0.427 0.4 0.427 1.020 0 1.42-0.213 0.2-0.49 0.3-0.746 0.3l-0.021-0.020z"></path>
</symbol>
<symbol id="menu-fill" viewBox="0 0 32 32">
<path d="M26.667 23.333c0.514 0 1.007 0.198 1.379 0.553s0.593 0.838 0.618 1.351c0.025 0.513-0.149 1.016-0.485 1.404s-0.809 0.633-1.32 0.682l-0.192 0.009h-21.333c-0.514-0-1.007-0.198-1.379-0.553s-0.593-0.838-0.618-1.351c-0.025-0.513 0.149-1.016 0.485-1.404s0.809-0.633 1.32-0.682l0.192-0.009h21.333zM26.667 14c0.53 0 1.039 0.211 1.414 0.586s0.586 0.884 0.586 1.414-0.211 1.039-0.586 1.414c-0.375 0.375-0.884 0.586-1.414 0.586h-21.333c-0.53 0-1.039-0.211-1.414-0.586s-0.586-0.884-0.586-1.414 0.211-1.039 0.586-1.414c0.375-0.375 0.884-0.586 1.414-0.586h21.333zM26.667 4.667c0.53 0 1.039 0.211 1.414 0.586s0.586 0.884 0.586 1.414-0.211 1.039-0.586 1.414c-0.375 0.375-0.884 0.586-1.414 0.586h-21.333c-0.53 0-1.039-0.211-1.414-0.586s-0.586-0.884-0.586-1.414 0.211-1.039 0.586-1.414c0.375-0.375 0.884-0.586 1.414-0.586h21.333z"></path>
</symbol>
<symbol id="monitor" viewBox="0 0 32 32">
<path fill="#fff" style="fill: var(--color1, #fff)" d="M28 21.333h-24v-16h24zM28 2.667h-24c-1.48 0-2.667 1.187-2.667 2.667v16c0 0.707 0.281 1.386 0.781 1.886s1.178 0.781 1.886 0.781h9.333v2.667h-2.667v2.667h10.667v-2.667h-2.667v-2.667h9.333c1.48 0 2.667-1.187 2.667-2.667v-16c0-0.707-0.281-1.385-0.781-1.886s-1.178-0.781-1.886-0.781zM20 7.333l-0.827 1.827-1.84 0.84 1.84 0.84 0.827 1.827 0.84-1.827 1.827-0.84-1.827-0.84-0.84-1.827zM14 10l-1.453 3.213-3.213 1.453 3.213 1.453 1.453 3.213 1.467-3.213 3.2-1.453-3.2-1.453-1.467-3.213z"></path>
</symbol>
<symbol id="offline" viewBox="0 0 32 32">
<path fill="#fff" style="fill: var(--color1, #fff)" d="M13.034 24.542l2.508-2.508c0.149-0.023 0.302-0.034 0.458-0.034 0.613 0 1.211 0.188 1.714 0.539s0.886 0.846 1.099 1.421c0.212 0.575 0.244 1.201 0.090 1.794s-0.486 1.125-0.951 1.524c-0.465 0.399-1.042 0.646-1.652 0.707s-1.224-0.065-1.759-0.363c-0.536-0.298-0.967-0.753-1.236-1.303s-0.364-1.17-0.27-1.776zM18.924 18.654l1.48-1.48c0.722 0.416 1.388 0.934 1.974 1.544 0.184 0.191 0.284 0.448 0.279 0.713s-0.116 0.517-0.307 0.701c-0.191 0.184-0.448 0.284-0.713 0.279s-0.517-0.116-0.701-0.307c-0.576-0.603-1.258-1.094-2.012-1.45zM23.248 14.328l1.432-1.43c0.617 0.465 1.197 0.98 1.74 1.544 0.091 0.095 0.162 0.207 0.21 0.329s0.071 0.253 0.068 0.384-0.031 0.261-0.084 0.381c-0.053 0.12-0.129 0.229-0.224 0.32s-0.207 0.162-0.329 0.21c-0.122 0.048-0.253 0.071-0.384 0.068s-0.261-0.031-0.381-0.084c-0.12-0.053-0.229-0.129-0.32-0.224-0.529-0.551-1.108-1.052-1.728-1.498zM14.122 12.14c-2.681 0.407-5.155 1.683-7.042 3.63-0.186 0.187-0.437 0.293-0.701 0.296s-0.517-0.099-0.706-0.283c-0.189-0.184-0.298-0.434-0.303-0.698s0.094-0.518 0.276-0.709c1.375-1.418 3.027-2.539 4.854-3.291s3.789-1.121 5.764-1.083l-2.142 2.138zM27.466 10.112l1.42-1.42c0.548 0.461 1.072 0.952 1.572 1.472 0.172 0.193 0.263 0.446 0.253 0.705s-0.12 0.504-0.307 0.683-0.436 0.279-0.695 0.279c-0.259-0.001-0.508-0.102-0.694-0.282-0.488-0.509-1.006-0.988-1.55-1.436zM19.852 6.412c-1.265-0.276-2.557-0.414-3.852-0.412-2.413-0.002-4.802 0.481-7.024 1.42s-4.234 2.316-5.914 4.048c-0.091 0.096-0.2 0.172-0.321 0.226s-0.251 0.082-0.383 0.084c-0.132 0.003-0.264-0.021-0.386-0.070s-0.235-0.121-0.33-0.213c-0.095-0.092-0.17-0.202-0.222-0.324s-0.079-0.252-0.081-0.384c-0.001-0.132 0.024-0.263 0.074-0.386s0.123-0.234 0.216-0.328c1.866-1.924 4.1-3.453 6.569-4.496s5.122-1.58 7.803-1.578c1.888 0 3.736 0.262 5.5 0.764l-1.648 1.648zM16 26c0.265 0 0.52-0.105 0.707-0.293s0.293-0.442 0.293-0.707-0.105-0.52-0.293-0.707c-0.188-0.188-0.442-0.293-0.707-0.293s-0.52 0.105-0.707 0.293c-0.188 0.188-0.293 0.442-0.293 0.707s0.105 0.52 0.293 0.707c0.188 0.188 0.442 0.293 0.707 0.293zM5.152 28c-0.189 0.182-0.441 0.283-0.703 0.281s-0.513-0.107-0.698-0.293-0.291-0.436-0.293-0.698c-0.002-0.262 0.099-0.515 0.281-0.703l24.554-24.294c0.188-0.188 0.442-0.293 0.708-0.293s0.52 0.106 0.708 0.293 0.293 0.442 0.293 0.708c0 0.266-0.105 0.52-0.293 0.708l-24.556 24.292z"></path>
</symbol>
<symbol id="swords" viewBox="0 0 32 32">
<path fill="none" stroke="#fff" style="stroke: var(--color1, #fff)" stroke-linejoin="round" stroke-linecap="round" stroke-miterlimit="4" stroke-width="1.92" d="M19.333 23.333l-15.333-15.333v-4h4l15.333 15.333M17.333 25.333l8-8M21.333 21.333l5.333 5.333M25.333 28l2.667-2.667M19.333 8.667l4.667-4.667h4v4l-4.667 4.667M6.667 18.667l5.333 5.333M9.333 22.667l-4 4M4 25.333l2.667 2.667"></path>
</symbol>
<symbol id="tank" viewBox="0 0 32 32">
<path fill="#fff" style="fill: var(--color1, #fff)" d="M30 13v-2h-11.382l-0.723-1.447c-0.083-0.166-0.211-0.306-0.369-0.404s-0.34-0.149-0.526-0.149h-8c-0.265 0-0.52 0.105-0.707 0.293s-0.293 0.442-0.293 0.707v5h-4v2h18.638l3.6 3h-23.238c-0.265 0-0.52 0.105-0.707 0.293s-0.293 0.442-0.293 0.707v2c0.002 1.326 0.529 2.596 1.466 3.534s2.208 1.465 3.534 1.466h18c1.326-0.002 2.596-0.529 3.534-1.466s1.465-2.208 1.466-3.534v-2c0-0.147-0.032-0.292-0.094-0.425s-0.153-0.25-0.266-0.344l-6-5c-0.18-0.149-0.406-0.231-0.64-0.231h-2.382l-1-2h10.382zM28 23c-0.001 0.795-0.317 1.558-0.88 2.12s-1.325 0.879-2.12 0.88h-18c-0.795-0.001-1.558-0.317-2.12-0.88s-0.879-1.325-0.88-2.12v-1h24v1zM10 15v-4h6.382l2 4h-8.382z"></path>
</symbol>
<symbol id="x" viewBox="0 0 32 32">
<path fill="#fff" style="fill: var(--color1, #fff)" d="M7.766 4.843l8.235 8.235 8.192-8.192c0.181-0.193 0.399-0.347 0.641-0.453s0.503-0.163 0.767-0.166c0.566 0 1.108 0.225 1.508 0.625s0.625 0.943 0.625 1.508c0.005 0.262-0.044 0.521-0.143 0.763s-0.247 0.462-0.433 0.645l-8.299 8.192 8.299 8.299c0.352 0.344 0.558 0.81 0.576 1.301 0 0.566-0.225 1.108-0.625 1.508s-0.943 0.625-1.508 0.625c-0.272 0.011-0.543-0.034-0.797-0.133s-0.483-0.25-0.675-0.443l-8.128-8.235-8.213 8.213c-0.18 0.186-0.396 0.335-0.634 0.437s-0.494 0.157-0.753 0.16c-0.566 0-1.108-0.225-1.508-0.625s-0.625-0.943-0.625-1.508c-0.005-0.262 0.044-0.521 0.143-0.763s0.247-0.462 0.433-0.645l8.299-8.192-8.299-8.299c-0.352-0.344-0.558-0.81-0.576-1.301 0-0.566 0.225-1.108 0.625-1.508s0.943-0.625 1.508-0.625c0.512 0.006 1.003 0.213 1.365 0.576z"></path>
</symbol>
</defs>
</svg>
