<svg width="0" height="0" class="hidden">
  <symbol fill="none" xmlns="http://www.w3.org/2000/svg" viewBox="0 0 100 100" id="tank">
    <path d="M93.75 40.625V34.375H58.1813L55.9219 29.8531C55.6623 29.3336 55.2631 28.8968 54.7691 28.5915C54.275 28.2863 53.7057 28.1247 53.125 28.125H28.125C27.2962 28.125 26.5013 28.4542 25.9153 29.0403C25.3292 29.6263 25 30.4212 25 31.25V46.875H12.5V53.125H70.7438L81.9938 62.5H9.375C8.5462 62.5 7.75134 62.8292 7.16529 63.4153C6.57924 64.0013 6.25 64.7962 6.25 65.625V71.875C6.25496 76.0175 7.90276 79.9889 10.8319 82.9181C13.7611 85.8472 17.7325 87.495 21.875 87.5H78.125C82.2675 87.495 86.2389 85.8472 89.1681 82.9181C92.0972 79.9889 93.745 76.0175 93.75 71.875V65.625C93.7503 65.1664 93.6497 64.7134 93.4552 64.2981C93.2608 63.8828 92.9773 63.5154 92.625 63.2219L73.875 47.5969C73.3132 47.1299 72.6056 46.8745 71.875 46.875H64.4313L61.3063 40.625H93.75ZM87.5 71.875C87.4975 74.3606 86.509 76.7438 84.7514 78.5014C82.9938 80.259 80.6106 81.2475 78.125 81.25H21.875C19.3894 81.2475 17.0062 80.259 15.2486 78.5014C13.491 76.7438 12.5025 74.3606 12.5 71.875V68.75H87.5V71.875ZM31.25 46.875V34.375H51.1937L57.4437 46.875H31.25Z" fill="white"></path>
  </symbol>
  <symbol fill="none" xmlns="http://www.w3.org/2000/svg" viewBox="0 0 100 100" id="epic-games">
    <g clip-path="url(#clip0_593_705)">
      <path d="M14.7461 0C9.01797 0 6.91797 2.11563 6.91797 7.82813V76.8375C6.92214 77.4896 6.95026 78.0927 7.00234 78.6469C7.14922 79.9 7.14922 81.1219 8.31797 82.4875C8.43047 82.65 9.60547 83.5125 9.60547 83.5125C10.2398 83.8219 10.6773 84.05 11.393 84.3406L46.1273 98.8906C47.918 99.7063 48.6867 100.05 49.9867 100H50.0023C51.318 100.05 52.0867 99.7094 53.8773 98.8906L88.593 84.3406C89.3273 84.05 89.7461 83.8188 90.3961 83.5125C90.3961 83.5125 91.5711 82.6156 91.6836 82.4875C92.8555 81.1219 92.8555 79.9 92.9992 78.6469C93.0513 78.0927 93.0794 77.4958 93.0836 76.8562V7.83125C93.0836 2.11875 90.968 0.003125 85.2555 0.003125L14.7461 0ZM70.3961 12.9531H73.2242C77.9461 12.9531 80.2586 15.25 80.2586 20.0375V27.8656H74.5305V20.3438C74.5305 18.8156 73.8305 18.1156 72.3461 18.1156H71.3711C69.843 18.1156 69.143 18.8156 69.143 20.3438V44.5594C69.143 46.0875 69.843 46.7875 71.3711 46.7875H72.4617C73.9242 46.7875 74.6242 46.0875 74.6242 44.5594V35.9H80.3523V44.8375C80.3523 49.6031 78.0117 51.95 73.2742 51.95H70.3961C65.643 51.95 63.3117 49.5875 63.3117 44.8375V20.0781C63.3117 15.3125 65.6398 12.9531 70.3961 12.9531ZM19.6117 13.2844H32.5836V18.6063H25.4367V29.4438H32.3242V34.7531H25.4367V46.3062H32.6836V51.6312H19.6117V13.2844ZM35.5117 13.2844H44.6617C49.3961 13.2844 51.7398 15.6438 51.7398 20.4094V30.6C51.7398 35.3656 49.393 37.7125 44.6617 37.7125H41.3586V51.6281H35.5117V13.2844ZM54.3773 13.2844H60.2023V51.6312H54.3773V13.2844ZM41.3398 18.4406V32.5656H43.7492C45.2148 32.5656 45.9148 31.8531 45.9148 30.3187V20.6844C45.9148 19.1562 45.2148 18.4375 43.7492 18.4375L41.3398 18.4406ZM25.2742 60.7406H26.1367L26.3336 60.775H26.6461L26.8086 60.825H26.9711L27.118 60.8719L27.2805 60.9062L27.4086 60.9406L27.6992 61.0062L27.8648 61.0531L27.9773 61.0875L28.1055 61.1375L28.268 61.1875L28.3805 61.2344L28.5461 61.3L28.693 61.3656L28.8211 61.4438L28.968 61.5094L29.0805 61.5875L29.2461 61.6719L29.3742 61.75L29.5023 61.8156L29.6305 61.9125L29.7648 61.9969L29.8773 62.0938L30.268 62.3906L30.168 62.5188L30.0555 62.6312L29.9555 62.7469L29.843 62.875L29.7648 62.9875L29.6648 63.1031L29.5523 63.2156L29.4523 63.3438L29.3742 63.4562L29.2586 63.5906L29.1617 63.7031L29.0492 63.8313L28.9492 63.9469L28.8711 64.075L28.7555 64.1875L28.6586 64.3219L28.5461 64.4344L28.4461 64.5469L28.3336 64.4688L28.2055 64.3531L28.0711 64.275L27.8305 64.1125L27.6836 64.0281L27.5492 63.95L27.4023 63.8656L27.2898 63.8L27.1617 63.7375L26.8992 63.6375L26.7367 63.6094L26.6086 63.575L26.4617 63.5406L26.2961 63.5063L26.1336 63.4906H25.9711L25.7805 63.4562H25.468L25.3055 63.4719H25.143L24.9805 63.5219L24.8523 63.5562L24.7055 63.6063L24.5586 63.6344L24.4242 63.7L24.2617 63.7656L24.0367 63.9281L23.9023 64.0062L23.7898 64.1062L23.6773 64.1844L23.5617 64.2844L23.4836 64.3969L23.3492 64.5094L23.1867 64.7375L23.1086 64.8656L23.043 65.0125L22.9648 65.1281L22.8805 65.275L22.8305 65.4219L22.768 65.55L22.718 65.7125L22.7023 65.875L22.6555 66.025L22.6211 66.1875V66.35L22.6055 66.5125V66.8875L22.6211 67.05V67.1781L22.6367 67.3406L22.6648 67.4875L22.7148 67.6156L22.7305 67.7812L22.7805 67.9094L22.8273 68.0219L22.893 68.1844L22.9773 68.3469L23.0398 68.4625L23.2023 68.7219L23.3023 68.85L23.3805 68.9656L23.5148 69.0625L23.593 69.175L23.7055 69.275L23.968 69.4719L24.0805 69.5344L24.2086 69.6188L24.3586 69.6844L24.5211 69.7469L24.6336 69.8125L24.9586 69.9094L25.1055 69.925L25.268 69.975L25.4305 69.9906H26.1305L26.3273 69.975H26.4742L26.6398 69.9094L26.8023 69.8937L26.9648 69.8469L27.093 69.8125L27.2398 69.7469L27.368 69.6844L27.5148 69.6188L27.6148 69.5531L27.743 69.475V68.025H25.4461V65.7H30.6367V70.9094L30.5242 70.9875L30.4117 71.0844L30.2961 71.1687L30.168 71.2656L30.0398 71.3313L29.9273 71.4313L29.6648 71.5938L29.5023 71.6719L29.243 71.8344L29.0773 71.9L28.9492 71.9625L28.8023 72.0281L28.4773 72.1562L28.3492 72.2219L28.0523 72.3187L27.9055 72.3531L27.7586 72.4031L27.5961 72.4531L27.468 72.4812L26.9805 72.5813L26.8305 72.5969L26.5055 72.6312L26.3273 72.6469L26.1648 72.6594L25.9867 72.675H25.1742L25.0117 72.6469H24.8492L24.6867 72.6125H24.5398L24.3773 72.5625L23.9023 72.4656L23.7742 72.4156L23.6273 72.4L23.4648 72.3344L23.168 72.2375L22.8773 72.1094L22.7148 72.0438L22.6023 71.9781L22.4398 71.9156L22.3242 71.8156L22.1617 71.7531L22.0648 71.6687L21.9367 71.5906L21.6742 71.3938L21.5461 71.3094L21.4461 71.2125L21.318 71.1125L21.1055 70.9031L20.993 70.8031L20.8961 70.6906L20.7805 70.575L20.7023 70.4469L20.6023 70.35L20.5242 70.2156L20.4242 70.0875L20.3461 69.975L20.2617 69.8469L20.1836 69.6969L20.118 69.5687L20.0523 69.4219L19.9898 69.2937L19.8617 68.9969L19.8117 68.8844L19.7461 68.7375L19.7117 68.5906L19.6836 68.4625L19.6492 68.3L19.5992 68.15L19.5648 67.9875L19.5492 67.8594L19.5211 67.6969L19.4867 67.4062L19.4523 67.0812V66.2188L19.4867 66.0531V65.8906L19.5367 65.7281V65.5656L19.5836 65.4187L19.6336 65.2562L19.6992 64.9656L19.7461 64.8031L19.7961 64.6562L19.993 64.2156L20.0555 64.0875L20.1211 63.9406L20.2055 63.7906L20.268 63.6625L20.3523 63.55L20.5148 63.2875L20.6117 63.1594L20.7117 63.0469L20.7898 62.9188L21.0023 62.7062L21.0992 62.5906L21.2148 62.4781L21.3117 62.3656L21.4461 62.2656L21.6711 62.0687L21.7992 61.9719L21.9336 61.8875L22.0461 61.7906L22.1742 61.7062L22.3086 61.6437L22.4555 61.5594L22.618 61.4813L22.7305 61.3969L22.893 61.3344L23.0398 61.2688L23.1867 61.1906L23.3211 61.1562L23.4836 61.1063L23.6117 61.0406L23.7586 61.0125L23.9055 60.9625L24.068 60.9281L24.2023 60.8781L24.3648 60.8437H24.5273L24.6742 60.7969H24.8367L24.9992 60.7625H25.1461L25.2742 60.7406ZM75.2273 60.775H76.0898L76.2867 60.8094H76.5961L76.7586 60.8563H76.9367L77.0992 60.9062L77.3898 60.9719L77.5523 61.0062L77.6992 61.0344L77.8648 61.0844L78.0117 61.1344L78.1398 61.1687L78.2867 61.2156L78.4492 61.2656L78.5773 61.3312L78.7398 61.3937L78.8898 61.4594L79.0367 61.5438L79.1492 61.6063L79.2961 61.6906L79.443 61.7531L79.5773 61.8375L79.7242 61.9344L79.8367 62.0188L80.0992 62.2156L80.2273 62.2938L80.1273 62.4219L80.0492 62.5562L79.9523 62.6688L79.8523 62.7969L79.7742 62.9438L79.6898 63.0781L79.593 63.1906L79.493 63.3187L79.4148 63.4531L79.3148 63.5813L79.2367 63.6937L79.1367 63.8219L79.0586 63.9719L78.9586 64.1L78.8617 64.2125L78.7617 64.3406L78.6836 64.475L78.5555 64.375L78.4055 64.2969L78.293 64.2125L78.1648 64.1344L78.018 64.0688L77.8836 63.9844L77.7367 63.9219L77.6242 63.8563L77.4617 63.7937L77.3461 63.7281L77.218 63.6781L76.9273 63.5813L76.6023 63.4812L76.1148 63.3844L75.9523 63.3688L75.6555 63.3344H75.3148L75.1367 63.3688L74.9742 63.4031L74.8273 63.4375L74.6992 63.5L74.5836 63.5656L74.4555 63.6781L74.3586 63.825L74.293 63.975V64.3625L74.3773 64.5406L74.4398 64.6406L74.5398 64.7375L74.7023 64.8219L74.8305 64.9L74.9773 64.9656L75.1398 65.0281L75.3523 65.0781L75.4648 65.1281L75.5992 65.1625L75.7617 65.1969L75.8898 65.2438L76.0367 65.2781L76.2148 65.3281L76.3773 65.3781L76.5555 65.425L76.7336 65.4594L76.8805 65.5094L77.0586 65.5563L77.2211 65.5906L77.368 65.625L77.8586 65.7719L77.9867 65.8219L78.1492 65.8719L78.2961 65.9344L78.4586 66.0187L78.7836 66.1469L78.9305 66.2312L79.193 66.3938L79.4336 66.5719L79.5836 66.6687L79.6961 66.7812L79.8086 66.9156L79.9242 67.0281L80.0023 67.1406L80.118 67.3031L80.1961 67.4187L80.2617 67.5812L80.3242 67.6781L80.3742 67.8406L80.4242 67.975L80.4586 68.1219L80.5211 68.4469L80.5367 68.6094L80.5523 68.7563V69.1469L80.5367 69.325L80.5023 69.65L80.468 69.8125L80.4211 69.9594L80.3867 70.1219L80.3367 70.2844L80.2898 70.4313L80.2242 70.5469L80.1586 70.6937L80.0805 70.8219L79.9805 70.9375L79.818 71.1969L79.6211 71.425L79.5086 71.5031L79.3805 71.6187L79.2805 71.7156L79.1523 71.8125L79.0242 71.8781L78.8961 71.9781L78.7461 72.0563L78.4555 72.2031L78.293 72.2687L78.1461 72.3313L77.9836 72.3812L77.8367 72.4313L77.7023 72.4656L77.3773 72.5281L77.2648 72.5625L77.1023 72.5969H76.9398L76.793 72.6312H76.6305L76.468 72.6656H75.3086L74.8211 72.6156L74.6586 72.5813L74.5117 72.5656L74.1867 72.5031L74.0086 72.4688L73.8617 72.4344L73.6992 72.3844L73.5336 72.35L73.3867 72.3031L73.2242 72.2531L73.0617 72.1875L72.9336 72.1406L72.7711 72.0906L72.6086 72.025L72.493 71.9625L72.3305 71.9125L72.2023 71.8281L72.0398 71.7656L71.9117 71.6813L71.7961 71.6031L71.6336 71.5187L71.5211 71.4562L71.393 71.3562L71.2648 71.2781L71.1305 71.1781L71.018 71.0813L70.8898 70.9813L70.7742 70.9031L70.6461 70.7875L70.7461 70.6594L70.8586 70.5469L70.9555 70.4313L71.0711 70.3031L71.1492 70.1906L71.2492 70.0625L71.3617 69.9469L71.4586 69.8344L71.5742 69.7063L71.6523 69.5906L71.768 69.4781L71.8648 69.35L71.9648 69.2344L72.0773 69.1063L72.1555 68.9937L72.2711 68.8781L72.3836 68.75L72.4961 68.85L72.6461 68.9469L72.7586 69.0437L72.9211 69.1281L73.0336 69.2125L73.1805 69.3094L73.3148 69.3937L73.4617 69.4563L73.5742 69.5406L73.7211 69.5875L73.8836 69.6531L74.018 69.7188L74.1648 69.7656L74.293 69.8313L74.4555 69.8812L74.6023 69.9281L74.7648 69.9781L74.9273 69.9938L75.0773 70.0437L75.2398 70.0594H75.418L75.5648 70.1062H76.443L76.5898 70.0781L76.7523 70.0437L76.8648 70.0281L76.9992 69.9781L77.1117 69.9156L77.2586 69.8156L77.343 69.7031L77.4055 69.575L77.4555 69.425V69.05L77.3898 68.9031L77.3117 68.775L77.2117 68.6781L77.0648 68.5781L76.9523 68.5312L76.8055 68.4656L76.643 68.4L76.4648 68.3219L76.3492 68.2875L76.2211 68.2531L76.0586 68.2031L75.9461 68.175L75.7836 68.125L75.6211 68.1094L75.4555 68.0437L75.293 68.0281L75.1148 67.9812L74.968 67.9469L74.8055 67.8969L74.643 67.8625L74.4805 67.8156L74.3336 67.7656L74.1711 67.7312L74.043 67.6813L73.7461 67.5844L73.5836 67.5188L73.4211 67.4719L73.0961 67.3375L72.9492 67.2594L72.7867 67.175L72.6742 67.0969L72.5242 67.0125L72.4117 66.9344L72.2648 66.85L72.0523 66.6375L71.9398 66.5406L71.743 66.3125L71.6586 66.2L71.5961 66.0875L71.4961 65.9375L71.4492 65.825L71.2992 65.4344L71.2711 65.2719L71.2367 65.125V64.9781L71.2023 64.8156V64.15L71.2367 63.825L71.2711 63.6906L71.2992 63.5437L71.3492 63.4156L71.3836 63.2531L71.4492 63.1406L71.5117 62.975L71.5773 62.8469L71.6398 62.6844L71.7242 62.5719L71.8367 62.4438L71.9211 62.3094L72.0492 62.1969L72.1461 62.0844L72.2461 61.95L72.393 61.8375L72.493 61.7531L72.6211 61.6562L72.8805 61.4937L73.0273 61.4094L73.3242 61.2625L73.4523 61.2156L73.5992 61.1656L73.7617 61.1L73.9242 61.0531L74.0398 61.0187L74.1867 60.9844L74.3148 60.95L74.4617 60.9156L74.6242 60.8813L74.9492 60.8531L75.0992 60.8375L75.2273 60.775ZM36.7336 60.8875H39.6805L39.8148 61.1844L39.8773 61.3125L39.9273 61.475L39.993 61.6219L40.0398 61.75L40.1242 61.8969L40.2211 62.1938L40.3055 62.3406L40.4336 62.6312L40.468 62.7594L40.7273 63.3469L40.7773 63.4938L40.843 63.6281L40.9211 63.775L40.9555 63.9219L41.0398 64.0844L41.068 64.2313L41.218 64.5219L41.2805 64.6375L41.3461 64.8L41.3961 64.9625L41.443 65.075L41.5273 65.2375L41.5773 65.3719L41.6398 65.5344L41.6898 65.6469L41.7555 65.8094L41.9023 66.1L41.9492 66.2469L41.9836 66.3969L42.0492 66.5438L42.1273 66.6719L42.193 66.8344L42.2586 66.9812L42.3055 67.1094L42.4398 67.4062L42.4867 67.5531L42.5523 67.7L42.6023 67.8469L42.6648 67.975L42.7492 68.125L42.8117 68.2719L42.8773 68.4L42.9117 68.5625L43.0398 68.8531L43.1055 68.9875L43.1523 69.1344L43.2867 69.425L43.3648 69.5875L43.3992 69.7156L43.4836 69.8812L43.5117 69.9938L43.5773 70.1562L43.6617 70.3188L43.7242 70.4313L43.7742 70.5938L43.8398 70.7281L43.8867 70.8906L43.9711 71.0031L44.068 71.3281L44.1336 71.4437L44.1961 71.6062L44.2805 71.7344L44.3461 71.8969L44.3742 72.0438L44.4242 72.1719L44.4898 72.3187L44.568 72.4531H41.3148L41.2367 72.3187L41.1867 72.1719L41.1211 72.025L41.0586 71.8625L41.0242 71.7344L40.8898 71.4437L40.843 71.3094L40.7148 71.0188L40.6648 70.8906L40.5992 70.7281L40.5023 70.4313L40.4367 70.3031H35.9117L35.8492 70.45L35.7992 70.5844L35.7336 70.7469L35.6711 70.8938L35.6367 71.0219L35.5711 71.1844L35.5086 71.3125L35.4586 71.4594L35.393 71.5938L35.3305 71.7562L35.2805 71.8687L35.2148 72.0312L35.168 72.1937L35.1023 72.3094L35.0523 72.4719H31.8305L31.8773 72.3219L32.0117 72.0312L32.0586 71.8687L32.1086 71.7406L32.193 71.5938L32.2555 71.4469L32.3211 71.3125L32.3555 71.1656L32.418 71.0031L32.5023 70.875L32.5648 70.7281L32.6648 70.4313L32.8117 70.1406L32.8617 69.9938L32.9242 69.8656L32.9742 69.7156L33.1711 69.2781L33.2367 69.1156L33.2836 68.9875L33.3336 68.8406L33.418 68.7063L33.4805 68.5437L33.5305 68.3969L33.5805 68.2688L33.643 68.1063L33.7273 67.9906L33.7773 67.8281L33.8398 67.7L33.8898 67.5531L33.9555 67.3906L34.0336 67.2625L34.0836 67.1L34.1461 66.9844L34.1961 66.8219L34.2617 66.6594L34.3242 66.5469L34.3898 66.3844L34.4398 66.25L34.5023 66.0875L34.5523 65.975L34.6367 65.8125L34.6992 65.65L34.7648 65.5219L34.7992 65.375L34.8617 65.225L34.9461 65.0781L35.0086 64.95L35.043 64.7875L35.1086 64.6406L35.1742 64.5062L35.3023 64.2156L35.3492 64.0875L35.4836 63.7625L35.5461 63.6469L35.6117 63.4844L35.6617 63.3563L35.7086 63.1937L35.7742 63.0469L35.8586 62.9188L35.9211 62.7563L35.9711 62.6406L36.0211 62.4781L36.0836 62.35L36.168 62.2031L36.218 62.0406L36.2648 61.9062L36.3305 61.7437L36.393 61.6312L36.4773 61.4688L36.5273 61.3063L36.5742 61.1938L36.6398 61.0313L36.7336 60.8875ZM45.8836 60.9719H49.1055L49.2055 61.1L49.368 61.3625L49.4461 61.5094L49.5305 61.6219L49.6086 61.7688L49.693 61.8969L49.7711 62.0469L49.8555 62.175L49.9336 62.2875L50.018 62.4344L50.0961 62.5687L50.2117 62.6969L50.2586 62.825L50.3586 62.9719L50.4367 63.1063L50.5367 63.2188L50.6023 63.3656L50.6805 63.4938L50.7805 63.6281L50.8273 63.7563L50.943 63.9031L51.1836 64.2937L51.2492 64.4219L51.3461 64.55L51.4305 64.6781L51.5086 64.8281L51.7555 65.2156L51.8336 65.3656L51.918 65.4938L52.0148 65.3656L52.0805 65.2L52.1773 65.0875L52.2617 64.9406L52.3398 64.8281L52.4055 64.6656L52.518 64.55L52.6023 64.4031L52.668 64.2906L52.7461 64.1562L52.8461 64.0094L52.9242 63.8969L53.0086 63.7344L53.0867 63.6219L53.1867 63.4719L53.2492 63.3594L53.3336 63.1969L53.4117 63.1L53.4961 62.9656L53.593 62.8031L53.6773 62.6906L53.7398 62.5438L53.8398 62.4281L53.918 62.2656L54.0023 62.1687L54.0992 62.0406L54.1836 61.8781L54.2617 61.7625L54.3461 61.6156L54.4242 61.5031L54.5086 61.3406L54.6055 61.225L54.6711 61.0781L54.7555 60.9656H58.0273V72.5875H54.9648V65.75L54.8867 65.8656L54.7867 66.0281L54.7086 66.125L54.6086 66.2531L54.5461 66.4156L54.4461 66.5312L54.368 66.6438L54.268 66.8063L54.1055 67.0344L54.0086 67.1625L53.9242 67.325L53.8273 67.4406L53.743 67.5531L53.6805 67.7156L53.5805 67.8281L53.5023 67.9437L53.4023 68.1063L53.3242 68.2188L53.2242 68.3469L53.1461 68.4937L53.0805 68.6094L52.9836 68.7375L52.8992 68.8844L52.8023 68.9969L52.7023 69.1312L52.6398 69.2594L52.5555 69.4062L52.4586 69.5219L52.3586 69.65L52.2961 69.8125L52.1805 69.9094L52.118 70.0375L52.018 70.2031L51.9398 70.3156H51.8742L51.7773 70.1688L51.693 70.0344L51.6148 69.8875L51.5305 69.775L51.4336 69.6281L51.3492 69.5L51.2523 69.3656L51.168 69.2375L51.0898 69.0906L51.0055 68.9781L50.893 68.8281L50.8273 68.7L50.7305 68.5531L50.6461 68.4406L50.568 68.2937L50.468 68.1594L50.3898 67.9969L50.2898 67.8844L50.2117 67.7375L50.1273 67.6031L50.0492 67.4563L49.9492 67.3438L49.8711 67.1969L49.7711 67.0687L49.7086 66.9344L49.6086 66.8063L49.5305 66.6594L49.4305 66.5469L49.3523 66.3969L49.2523 66.2687L49.1898 66.1219L49.0742 66.0094L49.0117 65.8594L48.9117 65.7313V72.5844H45.9023V61.075L45.8836 60.9719ZM60.3336 60.9719H69.4992V63.5938H63.3773V65.4656H68.8773V67.9406H63.3773V69.925H69.5773V72.5625H60.3492V61.0719L60.3336 60.9719ZM38.1648 64.5344L38.1148 64.6813L38.068 64.8156L38.0023 64.9781L37.9367 65.125L37.8898 65.2719L37.7555 65.5625L37.693 65.725L37.643 65.8594L37.593 66.0219L37.5305 66.1344L37.4805 66.2969L37.4148 66.4594L37.3523 66.575L37.3023 66.7375L37.2398 66.8656L37.1898 67.0281L37.1055 67.175L37.0711 67.3031L37.0086 67.4656L36.943 67.6156L36.893 67.7438L36.8305 67.9062H39.5148L39.4523 67.7438L39.4023 67.5969L39.2742 67.3L39.2242 67.1531L39.1586 67.025L39.1117 66.8625L39.0461 66.7156L38.9961 66.5687L38.9336 66.4344L38.8836 66.2875L38.818 66.125L38.7711 65.9969L38.6367 65.7062L38.6086 65.5563L38.543 65.4094L38.4773 65.2469L38.4305 65.1344L38.2961 64.8094L38.2492 64.6625L38.1648 64.5344ZM33.3836 86.2969H66.7617L49.7242 91.9125L33.3836 86.2969Z" fill="white"></path>
    </g>
    <defs>
      <clipPath id="clip0_593_705">
        <rect width="100" height="100" fill="white"></rect>
      </clipPath>
    </defs>
  </symbol>
  <symbol fill="none" xmlns="http://www.w3.org/2000/svg" viewBox="0 0 100 100" id="swords">
    <path d="M60.4167 72.9167L12.5 25V12.5H25L72.9167 60.4167M54.1667 79.1667L79.1667 54.1667M66.6667 66.6667L83.3333 83.3333M79.1667 87.5L87.5 79.1667M60.4167 27.0833L75 12.5H87.5V25L72.9167 39.5833M20.8333 58.3333L37.5 75M29.1667 70.8333L16.6667 83.3333M12.5 79.1667L20.8333 87.5" stroke="white" stroke-width="6" stroke-linecap="round" stroke-linejoin="round"></path>
  </symbol>
  <symbol fill="none" xmlns="http://www.w3.org/2000/svg" viewBox="0 0 100 100" id="monitor">
    <path d="M87.5013 66.6668H12.5013V16.6668H87.5013M87.5013 8.3335H12.5013C7.8763 8.3335 4.16797 12.0418 4.16797 16.6668V66.6668C4.16797 68.877 5.04594 70.9966 6.60875 72.5594C8.17155 74.1222 10.2912 75.0002 12.5013 75.0002H41.668V83.3335H33.3346V91.6668H66.668V83.3335H58.3346V75.0002H87.5013C92.1263 75.0002 95.8346 71.2918 95.8346 66.6668V16.6668C95.8346 14.4567 94.9567 12.3371 93.3939 10.7743C91.831 9.21147 89.7114 8.3335 87.5013 8.3335ZM62.5013 22.9168L59.918 28.6252L54.168 31.2502L59.918 33.8752L62.5013 39.5835L65.1263 33.8752L70.8346 31.2502L65.1263 28.6252L62.5013 22.9168ZM43.7513 31.2502L39.2096 41.2918L29.168 45.8335L39.2096 50.3752L43.7513 60.4168L48.3346 50.3752L58.3346 45.8335L48.3346 41.2918L43.7513 31.2502Z" fill="white"></path>
  </symbol>
  <symbol fill="none" xmlns="http://www.w3.org/2000/svg" viewBox="0 0 100 100" id="clock">
    <path d="M49.9987 91.6668C73.0106 91.6668 91.6654 73.012 91.6654 50.0002C91.6654 26.9883 73.0106 8.3335 49.9987 8.3335C26.9868 8.3335 8.33203 26.9883 8.33203 50.0002C8.33203 73.012 26.9868 91.6668 49.9987 91.6668Z" stroke="white" stroke-width="6" stroke-linecap="round" stroke-linejoin="round"></path>
    <path d="M50 29.167V50.0003L62.5 62.5003" stroke="white" stroke-width="6" stroke-linecap="round" stroke-linejoin="round"></path>
  </symbol>
  <symbol fill="none" xmlns="http://www.w3.org/2000/svg" viewBox="0 0 50 50" id="arrow-up">
    <g clip-path="url(#clip0_593_753)">
      <path fill-rule="evenodd" clip-rule="evenodd" d="M23.5273 17.2773C23.9179 16.8867 24.4478 16.6673 25.0002 16.6673C25.5526 16.6673 26.0824 16.8867 26.4731 17.2773L38.2585 29.0627C38.4575 29.2549 38.6162 29.4847 38.7254 29.7389C38.8346 29.9931 38.892 30.2665 38.8945 30.5431C38.8969 30.8197 38.8441 31.0941 38.7394 31.3501C38.6346 31.6061 38.4799 31.8387 38.2843 32.0343C38.0887 32.2299 37.8561 32.3846 37.6001 32.4894C37.3441 32.5941 37.0697 32.6469 36.7931 32.6445C36.5165 32.642 36.2431 32.5846 35.9889 32.4754C35.7347 32.3662 35.5049 32.2075 35.3127 32.0085L25.0002 21.696L14.6877 32.0085C14.2948 32.388 13.7685 32.598 13.2223 32.5933C12.676 32.5885 12.1535 32.3694 11.7672 31.9831C11.381 31.5969 11.1619 31.0743 11.1571 30.5281C11.1524 29.9819 11.3624 29.4556 11.7418 29.0627L23.5273 17.2773Z" fill="white"></path>
    </g>
    <defs>
      <clipPath id="clip0_593_753">
        <rect width="50" height="50" fill="white" transform="matrix(-1 0 0 -1 50 50)"></rect>
      </clipPath>
    </defs>
  </symbol>
  <symbol fill="none" xmlns="http://www.w3.org/2000/svg" viewBox="0 0 50 50" id="arrow-down">
    <g clip-path="url(#clip0_574_424)">
      <path fill-rule="evenodd" clip-rule="evenodd" d="M26.4727 32.7227C26.0821 33.1133 25.5522 33.3327 24.9998 33.3327C24.4474 33.3327 23.9176 33.1133 23.5269 32.7227L11.7415 20.9373C11.5425 20.7451 11.3838 20.5153 11.2746 20.2611C11.1654 20.0069 11.108 19.7335 11.1055 19.4569C11.1031 19.1803 11.1559 18.9059 11.2606 18.6499C11.3654 18.3939 11.5201 18.1613 11.7157 17.9657C11.9113 17.7701 12.1439 17.6154 12.3999 17.5106C12.6559 17.4059 12.9303 17.3531 13.2069 17.3555C13.4835 17.358 13.7569 17.4154 14.0111 17.5246C14.2653 17.6338 14.4951 17.7925 14.6873 17.9915L24.9998 28.304L35.3123 17.9915C35.7052 17.612 36.2315 17.402 36.7777 17.4067C37.324 17.4115 37.8465 17.6306 38.2328 18.0169C38.619 18.4031 38.8381 18.9257 38.8429 19.4719C38.8476 20.0181 38.6376 20.5444 38.2582 20.9373L26.4727 32.7227Z" fill="white"></path>
    </g>
    <defs>
      <clipPath id="clip0_574_424">
        <rect width="50" height="50" fill="white"></rect>
      </clipPath>
    </defs>
  </symbol>
  <symbol fill="none" xmlns="http://www.w3.org/2000/svg" viewBox="0 0 45 45" id="menu-fill">
    <path d="M37.5 32.8125C38.2223 32.8129 38.9167 33.0911 39.4395 33.5895C39.9622 34.088 40.2731 34.7684 40.3079 35.4898C40.3426 36.2113 40.0984 36.9184 39.6259 37.4648C39.1535 38.0111 38.4889 38.3547 37.77 38.4244L37.5 38.4375H7.5C6.77772 38.4371 6.08326 38.1589 5.56053 37.6605C5.03779 37.162 4.72685 36.4816 4.69214 35.7602C4.65743 35.0387 4.90161 34.3316 5.37408 33.7852C5.84655 33.2389 6.51109 32.8953 7.23 32.8256L7.5 32.8125H37.5ZM37.5 19.6875C38.2459 19.6875 38.9613 19.9838 39.4887 20.5113C40.0162 21.0387 40.3125 21.7541 40.3125 22.5C40.3125 23.2459 40.0162 23.9613 39.4887 24.4887C38.9613 25.0162 38.2459 25.3125 37.5 25.3125H7.5C6.75408 25.3125 6.03871 25.0162 5.51126 24.4887C4.98382 23.9613 4.6875 23.2459 4.6875 22.5C4.6875 21.7541 4.98382 21.0387 5.51126 20.5113C6.03871 19.9838 6.75408 19.6875 7.5 19.6875H37.5ZM37.5 6.5625C38.2459 6.5625 38.9613 6.85882 39.4887 7.38626C40.0162 7.91371 40.3125 8.62908 40.3125 9.375C40.3125 10.1209 40.0162 10.8363 39.4887 11.3637C38.9613 11.8912 38.2459 12.1875 37.5 12.1875H7.5C6.75408 12.1875 6.03871 11.8912 5.51126 11.3637C4.98382 10.8363 4.6875 10.1209 4.6875 9.375C4.6875 8.62908 4.98382 7.91371 5.51126 7.38626C6.03871 6.85882 6.75408 6.5625 7.5 6.5625H37.5Z" fill="url(#paint0_linear_599_366)"></path>
    <defs>
      <linearGradient id="paint0_linear_599_366" x1="22.5" y1="6.5625" x2="22.5" y2="38.4375" gradientUnits="userSpaceOnUse">
        <stop stop-color="#1C2D37"></stop>
        <stop offset="1" stop-color="#8C0209"></stop>
      </linearGradient>
    </defs>
  </symbol>
  <symbol fill="none" xmlns="http://www.w3.org/2000/svg" viewBox="0 0 45 45" id="x">
    <path d="M10.9205 6.81L22.5005 18.39L34.0205 6.87C34.275 6.59915 34.5815 6.38248 34.9217 6.23299C35.262 6.08349 35.6289 6.00424 36.0005 6C36.7961 6 37.5592 6.31607 38.1218 6.87868C38.6844 7.44129 39.0005 8.20435 39.0005 9C39.0075 9.36781 38.9392 9.73316 38.8 10.0736C38.6607 10.4141 38.4533 10.7226 38.1905 10.98L26.5205 22.5L38.1905 34.17C38.6849 34.6537 38.9749 35.3088 39.0005 36C39.0005 36.7956 38.6844 37.5587 38.1218 38.1213C37.5592 38.6839 36.7961 39 36.0005 39C35.6182 39.0159 35.2367 38.952 34.8803 38.8126C34.524 38.6732 34.2005 38.4611 33.9305 38.19L22.5005 26.61L10.9505 38.16C10.697 38.4218 10.3942 38.6308 10.0595 38.775C9.72481 38.9192 9.36488 38.9957 9.00049 39C8.20484 39 7.44178 38.6839 6.87917 38.1213C6.31656 37.5587 6.00049 36.7956 6.00049 36C5.99349 35.6322 6.06173 35.2668 6.20102 34.9264C6.34031 34.5859 6.54771 34.2774 6.81049 34.02L18.4805 22.5L6.81049 10.83C6.31604 10.3463 6.02611 9.69124 6.00049 9C6.00049 8.20435 6.31656 7.44129 6.87917 6.87868C7.44178 6.31607 8.20484 6 9.00049 6C9.72049 6.009 10.4105 6.3 10.9205 6.81Z" fill="white"></path>
  </symbol>
  <symbol fill="none" xmlns="http://www.w3.org/2000/svg" viewBox="0 0 14 30" id="left">
    <path d="M11.0001 24.375C10.869 24.3765 10.739 24.3523 10.6185 24.3038C10.498 24.2554 10.3896 24.1838 10.3004 24.0938L1.30379 15.6563C0.903944 15.2813 0.903944 14.7 1.30379 14.325L10.3004 5.90625C10.7002 5.53125 11.32 5.53125 11.7198 5.90625C12.1197 6.28125 12.1197 6.8625 11.7198 7.2375L3.42298 15L11.7198 22.7812C12.1197 23.1562 12.1197 23.7375 11.7198 24.1125C11.5199 24.3 11.26 24.3938 11.0201 24.3938L11.0001 24.375Z" fill="white"></path>
  </symbol>
  <symbol fill="none" xmlns="http://www.w3.org/2000/svg" viewBox="0 0 289 69" id="google-button">
    <path d="M1.64459 3.97248C0.919579 4.72567 0.5 5.89831 0.5 7.41693V61.585C0.5 63.1036 0.919579 64.2763 1.64459 65.0295L1.82353 65.1948L32.4098 34.8531V34.1366L1.82353 3.79491L1.64459 3.97248Z" fill="url(#paint0_linear_593_578)"></path>
    <path d="M42.5995 44.9718L32.4154 34.8528V34.1363L42.6118 24.0173L42.8401 24.149L54.9154 30.9674C58.3615 32.9025 58.3615 36.0867 54.9154 38.0339L42.8401 44.8401L42.5995 44.9718Z" fill="url(#paint1_linear_593_578)"></path>
    <path d="M42.8306 44.8402L32.4059 34.4947L1.64067 65.0293C2.78526 66.2233 4.65178 66.3672 6.77437 65.1732L42.8306 44.8402Z" fill="url(#paint2_linear_593_578)"></path>
    <path d="M42.8306 24.1494L6.77437 3.81643C4.65178 2.63461 2.78526 2.7785 1.64067 3.97258L32.4059 34.4947L42.8306 24.1494Z" fill="url(#paint3_linear_593_578)"></path>
    <path d="M104.751 12.2676H109.242V18.499C108.568 18.7275 107.874 18.8975 107.159 19.0088C106.45 19.1201 105.656 19.1758 104.777 19.1758C103.441 19.1758 102.313 18.9092 101.394 18.376C100.479 17.8428 99.7852 17.084 99.3105 16.0996C98.8359 15.1094 98.5986 13.9346 98.5986 12.5752C98.5986 11.2451 98.8594 10.085 99.3809 9.09473C99.9082 8.10449 100.667 7.33691 101.657 6.79199C102.653 6.24121 103.849 5.96582 105.243 5.96582C105.958 5.96582 106.635 6.0332 107.273 6.16797C107.918 6.29688 108.516 6.48145 109.066 6.72168L108.495 8.02246C108.021 7.81738 107.496 7.6416 106.922 7.49512C106.354 7.34863 105.765 7.27539 105.155 7.27539C104.106 7.27539 103.207 7.49219 102.457 7.92578C101.713 8.35938 101.142 8.97168 100.743 9.7627C100.351 10.5537 100.154 11.4912 100.154 12.5752C100.154 13.6475 100.327 14.582 100.673 15.3789C101.019 16.1699 101.558 16.7852 102.29 17.2246C103.022 17.6641 103.966 17.8838 105.12 17.8838C105.7 17.8838 106.198 17.8516 106.614 17.7871C107.03 17.7168 107.408 17.6348 107.748 17.541V13.6035H104.751V12.2676ZM116.843 9.19141C117.663 9.19141 118.366 9.37305 118.952 9.73633C119.538 10.0996 119.986 10.6094 120.297 11.2656C120.607 11.916 120.763 12.6777 120.763 13.5508V14.4561H114.109C114.127 15.5869 114.408 16.4482 114.953 17.04C115.498 17.6318 116.266 17.9277 117.256 17.9277C117.865 17.9277 118.404 17.8721 118.873 17.7607C119.342 17.6494 119.828 17.4854 120.332 17.2686V18.5518C119.846 18.7686 119.362 18.9268 118.882 19.0264C118.407 19.126 117.845 19.1758 117.194 19.1758C116.269 19.1758 115.46 18.9883 114.769 18.6133C114.083 18.2324 113.55 17.6758 113.169 16.9434C112.788 16.2109 112.598 15.3145 112.598 14.2539C112.598 13.2168 112.771 12.3203 113.116 11.5645C113.468 10.8027 113.96 10.2168 114.593 9.80664C115.231 9.39648 115.981 9.19141 116.843 9.19141ZM116.825 10.3867C116.046 10.3867 115.425 10.6416 114.962 11.1514C114.499 11.6611 114.224 12.373 114.136 13.2871H119.233C119.228 12.7129 119.137 12.209 118.961 11.7754C118.791 11.3359 118.53 10.9961 118.179 10.7559C117.827 10.5098 117.376 10.3867 116.825 10.3867ZM127.353 17.9805C127.593 17.9805 127.839 17.96 128.091 17.9189C128.343 17.8779 128.548 17.8281 128.706 17.7695V18.9033C128.536 18.9795 128.299 19.0439 127.994 19.0967C127.695 19.1494 127.402 19.1758 127.115 19.1758C126.605 19.1758 126.143 19.0879 125.727 18.9121C125.311 18.7305 124.977 18.4258 124.725 17.998C124.479 17.5703 124.355 16.9785 124.355 16.2227V10.5098H122.984V9.79785L124.364 9.22656L124.944 7.13477H125.823V9.36719H128.645V10.5098H125.823V16.1787C125.823 16.7822 125.961 17.2334 126.236 17.5322C126.518 17.8311 126.89 17.9805 127.353 17.9805ZM138.792 9.36719V19H137.333V9.36719H138.792ZM138.08 5.76367C138.32 5.76367 138.525 5.84277 138.695 6.00098C138.871 6.15332 138.959 6.39355 138.959 6.72168C138.959 7.04395 138.871 7.28418 138.695 7.44238C138.525 7.60059 138.32 7.67969 138.08 7.67969C137.828 7.67969 137.617 7.60059 137.447 7.44238C137.283 7.28418 137.201 7.04395 137.201 6.72168C137.201 6.39355 137.283 6.15332 137.447 6.00098C137.617 5.84277 137.828 5.76367 138.08 5.76367ZM145.997 17.9805C146.237 17.9805 146.483 17.96 146.735 17.9189C146.987 17.8779 147.192 17.8281 147.351 17.7695V18.9033C147.181 18.9795 146.943 19.0439 146.639 19.0967C146.34 19.1494 146.047 19.1758 145.76 19.1758C145.25 19.1758 144.787 19.0879 144.371 18.9121C143.955 18.7305 143.621 18.4258 143.369 17.998C143.123 17.5703 143 16.9785 143 16.2227V10.5098H141.629V9.79785L143.009 9.22656L143.589 7.13477H144.468V9.36719H147.289V10.5098H144.468V16.1787C144.468 16.7822 144.605 17.2334 144.881 17.5322C145.162 17.8311 145.534 17.9805 145.997 17.9805ZM164.283 14.166C164.283 14.957 164.181 15.6631 163.976 16.2842C163.771 16.9053 163.475 17.4297 163.088 17.8574C162.701 18.2852 162.232 18.6133 161.682 18.8418C161.137 19.0645 160.519 19.1758 159.827 19.1758C159.183 19.1758 158.591 19.0645 158.052 18.8418C157.519 18.6133 157.056 18.2852 156.663 17.8574C156.276 17.4297 155.975 16.9053 155.758 16.2842C155.547 15.6631 155.441 14.957 155.441 14.166C155.441 13.1113 155.62 12.2148 155.978 11.4766C156.335 10.7324 156.845 10.167 157.507 9.78027C158.175 9.3877 158.969 9.19141 159.889 9.19141C160.768 9.19141 161.535 9.3877 162.191 9.78027C162.854 10.1729 163.366 10.7412 163.729 11.4854C164.099 12.2236 164.283 13.1172 164.283 14.166ZM156.953 14.166C156.953 14.9395 157.056 15.6104 157.261 16.1787C157.466 16.7471 157.782 17.1865 158.21 17.4971C158.638 17.8076 159.188 17.9629 159.862 17.9629C160.53 17.9629 161.078 17.8076 161.506 17.4971C161.939 17.1865 162.259 16.7471 162.464 16.1787C162.669 15.6104 162.771 14.9395 162.771 14.166C162.771 13.3984 162.669 12.7363 162.464 12.1797C162.259 11.6172 161.942 11.1836 161.515 10.8789C161.087 10.5742 160.533 10.4219 159.854 10.4219C158.852 10.4219 158.116 10.7529 157.647 11.415C157.185 12.0771 156.953 12.9941 156.953 14.166ZM172.367 9.19141C173.51 9.19141 174.374 9.47266 174.96 10.0352C175.546 10.5918 175.839 11.4883 175.839 12.7246V19H174.397V12.8213C174.397 12.0186 174.213 11.418 173.844 11.0195C173.48 10.6211 172.921 10.4219 172.165 10.4219C171.099 10.4219 170.349 10.7236 169.915 11.3271C169.481 11.9307 169.265 12.8066 169.265 13.9551V19H167.806V9.36719H168.983L169.203 10.7559H169.282C169.487 10.416 169.748 10.1318 170.064 9.90332C170.381 9.66895 170.735 9.49316 171.128 9.37598C171.521 9.25293 171.934 9.19141 172.367 9.19141Z" fill="black"></path>
    <path d="M109.719 46.5938H118.25V58.0625C117.052 58.4583 115.812 58.7656 114.531 58.9844C113.25 59.2031 111.812 59.3125 110.219 59.3125C107.896 59.3125 105.927 58.8542 104.312 57.9375C102.708 57.0104 101.49 55.6719 100.656 53.9219C99.8229 52.1615 99.4062 50.0417 99.4062 47.5625C99.4062 45.1771 99.8698 43.1094 100.797 41.3594C101.724 39.599 103.073 38.2396 104.844 37.2812C106.615 36.3125 108.76 35.8281 111.281 35.8281C112.521 35.8281 113.719 35.9531 114.875 36.2031C116.042 36.4427 117.109 36.776 118.078 37.2031L116.766 40.2969C115.995 39.9323 115.13 39.625 114.172 39.375C113.214 39.125 112.219 39 111.188 39C109.552 39 108.141 39.3542 106.953 40.0625C105.776 40.7708 104.87 41.7708 104.234 43.0625C103.599 44.3438 103.281 45.8594 103.281 47.6094C103.281 49.3073 103.536 50.7969 104.047 52.0781C104.557 53.3594 105.354 54.3594 106.438 55.0781C107.531 55.7865 108.943 56.1406 110.672 56.1406C111.536 56.1406 112.271 56.0938 112.875 56C113.479 55.9062 114.036 55.8021 114.547 55.6875V49.7969H109.719V46.5938ZM139.656 50.3125C139.656 51.75 139.469 53.026 139.094 54.1406C138.719 55.2552 138.172 56.1979 137.453 56.9688C136.734 57.7292 135.87 58.3125 134.859 58.7188C133.849 59.1146 132.708 59.3125 131.438 59.3125C130.25 59.3125 129.161 59.1146 128.172 58.7188C127.182 58.3125 126.323 57.7292 125.594 56.9688C124.875 56.1979 124.318 55.2552 123.922 54.1406C123.526 53.026 123.328 51.75 123.328 50.3125C123.328 48.4062 123.656 46.7917 124.312 45.4688C124.979 44.1354 125.927 43.1198 127.156 42.4219C128.385 41.724 129.849 41.375 131.547 41.375C133.141 41.375 134.547 41.724 135.766 42.4219C136.984 43.1198 137.938 44.1354 138.625 45.4688C139.312 46.8021 139.656 48.4167 139.656 50.3125ZM127.109 50.3125C127.109 51.5729 127.26 52.651 127.562 53.5469C127.875 54.4427 128.354 55.1302 129 55.6094C129.646 56.0781 130.479 56.3125 131.5 56.3125C132.521 56.3125 133.354 56.0781 134 55.6094C134.646 55.1302 135.12 54.4427 135.422 53.5469C135.724 52.651 135.875 51.5729 135.875 50.3125C135.875 49.0521 135.724 47.9844 135.422 47.1094C135.12 46.224 134.646 45.5521 134 45.0938C133.354 44.625 132.516 44.3906 131.484 44.3906C129.964 44.3906 128.854 44.901 128.156 45.9219C127.458 46.9427 127.109 48.4062 127.109 50.3125ZM160.188 50.3125C160.188 51.75 160 53.026 159.625 54.1406C159.25 55.2552 158.703 56.1979 157.984 56.9688C157.266 57.7292 156.401 58.3125 155.391 58.7188C154.38 59.1146 153.24 59.3125 151.969 59.3125C150.781 59.3125 149.693 59.1146 148.703 58.7188C147.714 58.3125 146.854 57.7292 146.125 56.9688C145.406 56.1979 144.849 55.2552 144.453 54.1406C144.057 53.026 143.859 51.75 143.859 50.3125C143.859 48.4062 144.188 46.7917 144.844 45.4688C145.51 44.1354 146.458 43.1198 147.688 42.4219C148.917 41.724 150.38 41.375 152.078 41.375C153.672 41.375 155.078 41.724 156.297 42.4219C157.516 43.1198 158.469 44.1354 159.156 45.4688C159.844 46.8021 160.188 48.4167 160.188 50.3125ZM147.641 50.3125C147.641 51.5729 147.792 52.651 148.094 53.5469C148.406 54.4427 148.885 55.1302 149.531 55.6094C150.177 56.0781 151.01 56.3125 152.031 56.3125C153.052 56.3125 153.885 56.0781 154.531 55.6094C155.177 55.1302 155.651 54.4427 155.953 53.5469C156.255 52.651 156.406 51.5729 156.406 50.3125C156.406 49.0521 156.255 47.9844 155.953 47.1094C155.651 46.224 155.177 45.5521 154.531 45.0938C153.885 44.625 153.047 44.3906 152.016 44.3906C150.495 44.3906 149.385 44.901 148.688 45.9219C147.99 46.9427 147.641 48.4062 147.641 50.3125ZM170.344 66.6875C168 66.6875 166.203 66.2656 164.953 65.4219C163.703 64.5781 163.078 63.3958 163.078 61.875C163.078 60.8125 163.411 59.9115 164.078 59.1719C164.745 58.4427 165.698 57.9375 166.938 57.6562C166.469 57.4479 166.062 57.125 165.719 56.6875C165.385 56.2396 165.219 55.7448 165.219 55.2031C165.219 54.5573 165.401 54.0052 165.766 53.5469C166.13 53.0885 166.677 52.6458 167.406 52.2188C166.5 51.8333 165.771 51.2083 165.219 50.3438C164.677 49.4688 164.406 48.4427 164.406 47.2656C164.406 46.0156 164.672 44.9531 165.203 44.0781C165.734 43.1927 166.51 42.5208 167.531 42.0625C168.552 41.5938 169.786 41.3594 171.234 41.3594C171.547 41.3594 171.885 41.3802 172.25 41.4219C172.625 41.4531 172.969 41.4948 173.281 41.5469C173.604 41.5885 173.849 41.6354 174.016 41.6875H180V43.7344L177.062 44.2812C177.344 44.6771 177.568 45.1302 177.734 45.6406C177.901 46.1406 177.984 46.6875 177.984 47.2812C177.984 49.0729 177.365 50.4844 176.125 51.5156C174.896 52.5365 173.198 53.0469 171.031 53.0469C170.51 53.026 170.005 52.9844 169.516 52.9219C169.141 53.151 168.854 53.4062 168.656 53.6875C168.458 53.9583 168.359 54.2656 168.359 54.6094C168.359 54.8906 168.458 55.1198 168.656 55.2969C168.854 55.4635 169.146 55.5885 169.531 55.6719C169.927 55.7552 170.406 55.7969 170.969 55.7969H173.953C175.849 55.7969 177.297 56.1979 178.297 57C179.297 57.8021 179.797 58.9792 179.797 60.5312C179.797 62.5 178.984 64.0156 177.359 65.0781C175.734 66.151 173.396 66.6875 170.344 66.6875ZM170.484 64.1094C171.766 64.1094 172.844 63.9844 173.719 63.7344C174.594 63.4844 175.255 63.125 175.703 62.6562C176.151 62.1979 176.375 61.651 176.375 61.0156C176.375 60.4531 176.234 60.0208 175.953 59.7188C175.672 59.4167 175.25 59.2083 174.688 59.0938C174.125 58.9792 173.427 58.9219 172.594 58.9219H169.875C169.198 58.9219 168.599 59.026 168.078 59.2344C167.557 59.4531 167.151 59.7656 166.859 60.1719C166.578 60.5781 166.438 61.0677 166.438 61.6406C166.438 62.4323 166.786 63.0417 167.484 63.4688C168.193 63.8958 169.193 64.1094 170.484 64.1094ZM171.203 50.6406C172.276 50.6406 173.073 50.349 173.594 49.7656C174.115 49.1719 174.375 48.3385 174.375 47.2656C174.375 46.099 174.104 45.224 173.562 44.6406C173.031 44.0573 172.24 43.7656 171.188 43.7656C170.156 43.7656 169.37 44.0625 168.828 44.6562C168.297 45.25 168.031 46.1302 168.031 47.2969C168.031 48.349 168.297 49.1719 168.828 49.7656C169.37 50.349 170.161 50.6406 171.203 50.6406ZM187.844 59H184.156V34.6875H187.844V59ZM200.984 41.375C202.526 41.375 203.849 41.6927 204.953 42.3281C206.057 42.9635 206.906 43.8646 207.5 45.0312C208.094 46.1979 208.391 47.5938 208.391 49.2188V51.1875H196.844C196.885 52.8646 197.333 54.1562 198.188 55.0625C199.052 55.9688 200.26 56.4219 201.812 56.4219C202.917 56.4219 203.906 56.3177 204.781 56.1094C205.667 55.8906 206.578 55.5729 207.516 55.1562V58.1406C206.651 58.5469 205.771 58.8438 204.875 59.0312C203.979 59.2188 202.906 59.3125 201.656 59.3125C199.958 59.3125 198.464 58.9844 197.172 58.3281C195.891 57.6615 194.885 56.6719 194.156 55.3594C193.438 54.0469 193.078 52.4167 193.078 50.4688C193.078 48.5312 193.406 46.8854 194.062 45.5312C194.719 44.1771 195.641 43.1458 196.828 42.4375C198.016 41.7292 199.401 41.375 200.984 41.375ZM200.984 44.1406C199.828 44.1406 198.891 44.5156 198.172 45.2656C197.464 46.0156 197.047 47.1146 196.922 48.5625H204.797C204.786 47.6979 204.641 46.9323 204.359 46.2656C204.089 45.599 203.672 45.0781 203.109 44.7031C202.557 44.3281 201.849 44.1406 200.984 44.1406ZM231.719 41.375C233.771 41.375 235.417 42.125 236.656 43.625C237.906 45.125 238.531 47.3542 238.531 50.3125C238.531 52.2708 238.24 53.9219 237.656 55.2656C237.083 56.599 236.276 57.6094 235.234 58.2969C234.203 58.974 233 59.3125 231.625 59.3125C230.75 59.3125 229.99 59.1979 229.344 58.9688C228.698 58.7396 228.146 58.4427 227.688 58.0781C227.229 57.7031 226.844 57.2969 226.531 56.8594H226.312C226.365 57.276 226.411 57.7396 226.453 58.25C226.505 58.75 226.531 59.2083 226.531 59.625V66.6719H222.844V41.7031H225.844L226.359 44.0938H226.531C226.854 43.6042 227.245 43.151 227.703 42.7344C228.172 42.3177 228.734 41.9896 229.391 41.75C230.057 41.5 230.833 41.375 231.719 41.375ZM230.734 44.375C229.724 44.375 228.911 44.5781 228.297 44.9844C227.693 45.3802 227.25 45.9792 226.969 46.7812C226.698 47.5833 226.552 48.5885 226.531 49.7969V50.3125C226.531 51.5938 226.661 52.6823 226.922 53.5781C227.193 54.4635 227.635 55.1406 228.25 55.6094C228.875 56.0677 229.719 56.2969 230.781 56.2969C231.677 56.2969 232.417 56.0521 233 55.5625C233.594 55.0729 234.036 54.375 234.328 53.4688C234.62 52.5625 234.766 51.4948 234.766 50.2656C234.766 48.401 234.432 46.9531 233.766 45.9219C233.109 44.8906 232.099 44.375 230.734 44.375ZM247.469 59H243.781V34.6875H247.469V59ZM260.5 41.375C262.688 41.375 264.339 41.8594 265.453 42.8281C266.578 43.7969 267.141 45.3073 267.141 47.3594V59H264.531L263.828 56.5469H263.703C263.214 57.1719 262.708 57.6875 262.188 58.0938C261.667 58.5 261.062 58.8021 260.375 59C259.698 59.2083 258.87 59.3125 257.891 59.3125C256.859 59.3125 255.938 59.125 255.125 58.75C254.312 58.3646 253.672 57.7812 253.203 57C252.734 56.2188 252.5 55.2292 252.5 54.0312C252.5 52.25 253.161 50.9115 254.484 50.0156C255.818 49.1198 257.828 48.625 260.516 48.5312L263.516 48.4219V47.5156C263.516 46.3177 263.234 45.4635 262.672 44.9531C262.12 44.4427 261.339 44.1875 260.328 44.1875C259.464 44.1875 258.625 44.3125 257.812 44.5625C257 44.8125 256.208 45.1198 255.438 45.4844L254.25 42.8906C255.094 42.4427 256.052 42.0781 257.125 41.7969C258.208 41.5156 259.333 41.375 260.5 41.375ZM263.5 50.7344L261.266 50.8125C259.432 50.875 258.146 51.1875 257.406 51.75C256.667 52.3125 256.297 53.0833 256.297 54.0625C256.297 54.9167 256.552 55.5417 257.062 55.9375C257.573 56.3229 258.245 56.5156 259.078 56.5156C260.349 56.5156 261.401 56.1562 262.234 55.4375C263.078 54.7083 263.5 53.6406 263.5 52.2344V50.7344ZM270.672 41.7031H274.672L278.219 51.5781C278.375 52.026 278.516 52.4688 278.641 52.9062C278.776 53.3333 278.891 53.7552 278.984 54.1719C279.089 54.5885 279.172 55.0052 279.234 55.4219H279.328C279.432 54.8802 279.578 54.276 279.766 53.6094C279.964 52.9323 280.182 52.2552 280.422 51.5781L283.828 41.7031H287.781L280.359 61.375C279.932 62.5 279.406 63.4583 278.781 64.25C278.167 65.0521 277.438 65.6562 276.594 66.0625C275.75 66.4792 274.786 66.6875 273.703 66.6875C273.182 66.6875 272.729 66.6562 272.344 66.5938C271.958 66.5417 271.63 66.4844 271.359 66.4219V63.4844C271.578 63.5365 271.854 63.5833 272.188 63.625C272.521 63.6667 272.865 63.6875 273.219 63.6875C273.875 63.6875 274.443 63.5573 274.922 63.2969C275.401 63.0365 275.807 62.6667 276.141 62.1875C276.474 61.7188 276.75 61.1823 276.969 60.5781L277.578 58.9531L270.672 41.7031Z" fill="black"></path>
    <defs>
      <linearGradient id="paint0_linear_593_578" x1="52.649" y1="6.12506" x2="16.3559" y2="69.7918" gradientUnits="userSpaceOnUse">
        <stop stop-color="#00A0FF"></stop>
        <stop offset="0.0066" stop-color="#00A1FF"></stop>
        <stop offset="0.2601" stop-color="#00BEFF"></stop>
        <stop offset="0.5122" stop-color="#00D2FF"></stop>
        <stop offset="0.7604" stop-color="#00DFFF"></stop>
        <stop offset="1" stop-color="#00E3FF"></stop>
      </linearGradient>
      <linearGradient id="paint1_linear_593_578" x1="61.8238" y1="34.5103" x2="-73.8806" y2="34.5103" gradientUnits="userSpaceOnUse">
        <stop stop-color="#FFE000"></stop>
        <stop offset="0.4087" stop-color="#FFBD00"></stop>
        <stop offset="0.7754" stop-color="#FFA500"></stop>
        <stop offset="1" stop-color="#FF9C00"></stop>
      </linearGradient>
      <linearGradient id="paint2_linear_593_578" x1="49.6555" y1="77.2461" x2="-54.9425" y2="150.185" gradientUnits="userSpaceOnUse">
        <stop stop-color="#FF3A44"></stop>
        <stop offset="1" stop-color="#C31162"></stop>
      </linearGradient>
      <linearGradient id="paint3_linear_593_578" x1="-6.10357" y1="83.0511" x2="18.7878" y2="57.9695" gradientUnits="userSpaceOnUse">
        <stop stop-color="#32A071"></stop>
        <stop offset="0.0685" stop-color="#2DA771"></stop>
        <stop offset="0.4762" stop-color="#15CF74"></stop>
        <stop offset="0.8009" stop-color="#06E775"></stop>
        <stop offset="1" stop-color="#00F076"></stop>
      </linearGradient>
    </defs>
  </symbol>
  <symbol fill="none" xmlns="http://www.w3.org/2000/svg" viewBox="0 0 50 50" id="red-x">
    <path d="M9.53214 9.53117C10.1182 8.94532 10.9129 8.61621 11.7415 8.61621C12.5702 8.61621 13.3649 8.94532 13.9509 9.53117L25.0009 20.5812L36.0509 9.53117C36.6403 8.96192 37.4297 8.64694 38.249 8.65406C39.0684 8.66118 39.8522 8.98984 40.4316 9.56924C41.011 10.1486 41.3396 10.9324 41.3468 11.7518C41.3539 12.5712 41.0389 13.3605 40.4696 13.9499L29.4196 24.9999L40.4696 36.0499C41.0389 36.6393 41.3539 37.4287 41.3468 38.248C41.3396 39.0674 41.011 39.8512 40.4316 40.4306C39.8522 41.01 39.0684 41.3387 38.249 41.3458C37.4297 41.3529 36.6403 41.0379 36.0509 40.4687L25.0009 29.4187L13.9509 40.4687C13.3615 41.0379 12.5721 41.3529 11.7528 41.3458C10.9334 41.3387 10.1496 41.01 9.57021 40.4306C8.99081 39.8512 8.66216 39.0674 8.65504 38.248C8.64792 37.4287 8.9629 36.6393 9.53214 36.0499L20.5821 24.9999L9.53214 13.9499C8.9463 13.3639 8.61719 12.5692 8.61719 11.7405C8.61719 10.9119 8.9463 10.1172 9.53214 9.53117Z" fill="#FF3A44"></path>
  </symbol>
  <symbol fill="none" xmlns="http://www.w3.org/2000/svg" viewBox="0 0 100 100" id="offline">
    <path d="M40.7298 76.6938L48.5673 68.8563C49.034 68.7855 49.5111 68.75 49.9986 68.75C51.9138 68.7508 53.7829 69.3381 55.3544 70.433C56.9258 71.528 58.1242 73.0779 58.7883 74.8744C59.4524 76.6708 59.5503 78.6276 59.069 80.4814C58.5876 82.3352 57.5499 83.997 56.0957 85.2434C54.6414 86.4898 52.8403 87.2608 50.9347 87.4528C49.0291 87.6448 47.1104 87.2485 45.4367 86.3173C43.7631 85.3861 42.4148 83.9646 41.5733 82.2441C40.7318 80.5236 40.4374 78.5866 40.7298 76.6938ZM59.1361 58.2938L63.7611 53.6688C66.0173 54.9688 68.0986 56.5875 69.9298 58.4938C70.5042 59.0914 70.8176 59.8926 70.8012 60.7213C70.7848 61.55 70.4399 62.3382 69.8423 62.9125C69.2447 63.4869 68.4435 63.8004 67.6148 63.7839C66.7861 63.7675 65.9979 63.4226 65.4236 62.825C63.6232 60.942 61.4919 59.406 59.1361 58.2938ZM72.6486 44.775L77.1236 40.3063C79.0527 41.7605 80.8652 43.3688 82.5611 45.1313C82.845 45.4276 83.0679 45.7769 83.2169 46.1593C83.3658 46.5418 83.438 46.9498 83.4293 47.3601C83.4206 47.7704 83.3312 48.175 83.1661 48.5507C83.0011 48.9265 82.7636 49.2661 82.4673 49.55C82.171 49.834 81.8217 50.0569 81.4393 50.2059C81.0569 50.3548 80.6488 50.427 80.2385 50.4183C79.8282 50.4096 79.4236 50.3202 79.0479 50.1551C78.6721 49.99 78.3325 49.7526 78.0486 49.4563C76.3942 47.7354 74.5867 46.1685 72.6486 44.775ZM44.1298 37.9375C35.7513 39.2107 28.0212 43.1954 22.1236 49.2813C21.5437 49.8658 20.7567 50.1979 19.9334 50.2054C19.1101 50.2129 18.3171 49.8952 17.7267 49.3213C17.1363 48.7474 16.7963 47.9637 16.7805 47.1405C16.7647 46.3173 17.0744 45.5212 17.6423 44.925C21.9396 40.4924 27.1031 36.9914 32.8114 34.6399C38.5198 32.2884 44.651 31.1366 50.8236 31.2563L44.1298 37.9375ZM85.8298 31.6L90.2673 27.1625C91.9798 28.6042 93.6173 30.1375 95.1798 31.7625C95.7189 32.3662 96.0027 33.1555 95.9715 33.9642C95.9403 34.773 95.5966 35.5381 95.0127 36.0985C94.4288 36.6589 93.6503 36.9709 92.8409 36.9689C92.0316 36.9669 91.2546 36.6509 90.6736 36.0875C89.1482 34.4982 87.5309 32.9997 85.8298 31.6ZM62.0361 20.0375C58.0816 19.1766 54.0457 18.7449 49.9986 18.75C42.4581 18.7429 34.9931 20.2519 28.0474 23.1873C21.1017 26.1228 14.8172 30.4248 9.56731 35.8375C9.28242 36.1366 8.94106 36.3762 8.56299 36.5425C8.18492 36.7088 7.77762 36.7985 7.36466 36.8065C6.9517 36.8144 6.54127 36.7404 6.15709 36.5887C5.77291 36.437 5.42261 36.2107 5.12645 35.9228C4.83029 35.6349 4.59414 35.2911 4.43165 34.9114C4.26917 34.5317 4.18357 34.1235 4.17982 33.7105C4.17606 33.2974 4.25422 32.8878 4.40977 32.5052C4.56532 32.1225 4.79518 31.7745 5.08606 31.4813C10.9184 25.4693 17.8996 20.691 25.615 17.4303C33.3303 14.1696 41.6224 12.4929 49.9986 12.5C55.8986 12.5 61.6736 13.3188 67.1861 14.8875L62.0361 20.0375ZM49.9986 81.25C50.8274 81.25 51.6222 80.9208 52.2083 80.3347C52.7943 79.7487 53.1236 78.9538 53.1236 78.125C53.1236 77.2962 52.7943 76.5014 52.2083 75.9153C51.6222 75.3293 50.8274 75 49.9986 75C49.1698 75 48.3749 75.3293 47.7889 75.9153C47.2028 76.5014 46.8736 77.2962 46.8736 78.125C46.8736 78.9538 47.2028 79.7487 47.7889 80.3347C48.3749 80.9208 49.1698 81.25 49.9986 81.25ZM16.0986 87.5C15.5092 88.0693 14.7198 88.3843 13.9004 88.3771C13.0811 88.37 12.2973 88.0414 11.7179 87.462C11.1385 86.8826 10.8098 86.0988 10.8027 85.2794C10.7956 84.4601 11.1106 83.6707 11.6798 83.0813L88.4111 7.16254C88.9978 6.57575 89.7937 6.24609 90.6236 6.24609C91.4534 6.24609 92.2493 6.57575 92.8361 7.16254C93.4229 7.74933 93.7525 8.54519 93.7525 9.37504C93.7525 10.2049 93.4229 11.0007 92.8361 11.5875L16.0986 87.5Z" fill="white"></path>
  </symbol>
  <symbol fill="none" xmlns="http://www.w3.org/2000/svg" viewBox="0 0 86 83" id="left-line">
    <path d="M0 3C45 3 45 77.88 90 81" stroke="white" stroke-width="5" stroke-dasharray="10"></path>
  </symbol>
  <symbol fill="none" xmlns="http://www.w3.org/2000/svg" viewBox="0 0 98 84" id="right-line">
    <path d="M102 3C51.5 3 51.5 77.88 1 81" stroke="white" stroke-width="5" stroke-dasharray="10"></path>
  </symbol>
  <symbol fill="none" xmlns="http://www.w3.org/2000/svg" viewBox="0 0 278 80" id="footer-googleplay">
    <path d="M267.031 80H10.9728C5.34207 80 0.730469 75.4975 0.730469 70V10C0.730469 4.5025 5.34207 4.22795e-06 10.9728 4.22795e-06H267.031C272.661 4.22795e-06 277.273 4.5025 277.273 10V70C277.273 75.4975 272.661 80 267.031 80Z" fill="white"></path>
    <path d="M267.031 1.6025C271.773 1.6025 275.632 5.37 275.632 10V70C275.632 74.63 271.773 78.3975 267.031 78.3975H10.9728C6.23059 78.3975 2.3718 74.63 2.3718 70V10C2.3718 5.37 6.23059 1.6025 10.9728 1.6025H267.031ZM267.031 4.22795e-06H10.9728C5.34207 4.22795e-06 0.730469 4.5025 0.730469 10V70C0.730469 75.4975 5.34207 80 10.9728 80H267.031C272.661 80 277.273 75.4975 277.273 70V10C277.273 4.5025 272.661 4.22795e-06 267.031 4.22795e-06Z" fill="#A6A6A6"></path>
    <path d="M97.8653 20.4875C97.8653 22.1575 97.3532 23.495 96.3443 24.4925C95.1844 25.675 93.6737 26.27 91.8224 26.27C90.053 26.27 88.5423 25.665 87.3029 24.4725C86.0611 23.2625 85.4414 21.7775 85.4414 20C85.4414 18.2225 86.0611 16.7375 87.3029 15.5375C88.5423 14.335 90.053 13.73 91.8224 13.73C92.7032 13.73 93.5431 13.9075 94.3445 14.2375C95.1434 14.57 95.7938 15.02 96.265 15.575L95.1946 16.63C94.3727 15.6825 93.2537 15.215 91.8224 15.215C90.5318 15.215 89.4129 15.655 88.4629 16.5425C87.5232 17.4325 87.052 18.585 87.052 20C87.052 21.415 87.5232 22.5775 88.4629 23.4675C89.4129 24.345 90.5318 24.795 91.8224 24.795C93.1923 24.795 94.3445 24.345 95.2535 23.4575C95.8527 22.87 96.1933 22.06 96.2829 21.025H91.8224V19.58H97.7731C97.8448 19.8925 97.8653 20.195 97.8653 20.4875Z" fill="black"></path>
    <path d="M107.305 15.4774H101.715V19.2774H106.754V20.7224H101.715V24.5224H107.305V25.9949H100.133V14.0049H107.305V15.4774Z" fill="black"></path>
    <path d="M113.968 25.9949H112.386V15.4774H108.957V14.0049H117.399V15.4774H113.968V25.9949Z" fill="black"></path>
    <path d="M123.504 25.9949V14.0049H125.084V25.9949H123.504Z" fill="black"></path>
    <path d="M132.093 25.9949H130.523V15.4774H127.082V14.0049H135.534V15.4774H132.093V25.9949Z" fill="black"></path>
    <path d="M151.515 24.4525C150.304 25.665 148.803 26.27 147.013 26.27C145.213 26.27 143.713 25.665 142.502 24.4525C141.293 23.2425 140.691 21.7575 140.691 20C140.691 18.2425 141.293 16.7575 142.502 15.5475C143.713 14.335 145.213 13.73 147.013 13.73C148.793 13.73 150.294 14.335 151.505 15.5575C152.724 16.7775 153.325 18.2525 153.325 20C153.325 21.7575 152.724 23.2425 151.515 24.4525ZM143.672 23.4475C144.583 24.345 145.692 24.795 147.013 24.795C148.324 24.795 149.443 24.345 150.345 23.4475C151.254 22.55 151.715 21.3975 151.715 20C151.715 18.6025 151.254 17.45 150.345 16.5525C149.443 15.655 148.324 15.205 147.013 15.205C145.692 15.205 144.583 15.655 143.672 16.5525C142.763 17.45 142.302 18.6025 142.302 20C142.302 21.3975 142.763 22.55 143.672 23.4475Z" fill="black"></path>
    <path d="M155.543 25.9949V14.0049H157.463L163.435 23.3299H163.504L163.435 21.0249V14.0049H165.015V25.9949H163.366L157.113 16.2099H157.043L157.113 18.5249V25.9949H155.543Z" fill="black"></path>
    <path d="M140.3 43.5053C135.489 43.5053 131.558 47.0803 131.558 52.0128C131.558 56.9053 135.489 60.5178 140.3 60.5178C145.122 60.5178 149.052 56.9053 149.052 52.0128C149.052 47.0803 145.122 43.5053 140.3 43.5053ZM140.3 57.1678C137.66 57.1678 135.389 55.0403 135.389 52.0128C135.389 48.9453 137.66 46.8553 140.3 46.8553C142.94 46.8553 145.221 48.9453 145.221 52.0128C145.221 55.0403 142.94 57.1678 140.3 57.1678ZM121.226 43.5053C116.405 43.5053 112.484 47.0803 112.484 52.0128C112.484 56.9053 116.405 60.5178 121.226 60.5178C126.045 60.5178 129.968 56.9053 129.968 52.0128C129.968 47.0803 126.045 43.5053 121.226 43.5053ZM121.226 57.1678C118.584 57.1678 116.305 55.0403 116.305 52.0128C116.305 48.9453 118.584 46.8553 121.226 46.8553C123.866 46.8553 126.137 48.9453 126.137 52.0128C126.137 55.0403 123.866 57.1678 121.226 57.1678ZM98.5292 46.1128V49.7278H107.371C107.112 51.7478 106.421 53.2328 105.361 54.2678C104.07 55.5178 102.06 56.9053 98.5292 56.9053C93.088 56.9053 88.8272 52.6178 88.8272 47.3053C88.8272 41.9928 93.088 37.7053 98.5292 37.7053C101.471 37.7053 103.612 38.8278 105.192 40.2828L107.801 37.7353C105.591 35.6753 102.652 34.0928 98.5292 34.0928C91.0677 34.0928 84.7969 40.0203 84.7969 47.3053C84.7969 54.5903 91.0677 60.5178 98.5292 60.5178C102.562 60.5178 105.591 59.2278 107.973 56.8078C110.413 54.4253 111.173 51.0753 111.173 48.3703C111.173 47.5303 111.102 46.7578 110.974 46.1128H98.5292ZM191.34 48.9153C190.62 47.0128 188.4 43.5053 183.878 43.5053C179.397 43.5053 175.667 46.9528 175.667 52.0128C175.667 56.7778 179.359 60.5178 184.309 60.5178C188.311 60.5178 190.62 58.1353 191.57 56.7478L188.6 54.8153C187.609 56.2303 186.26 57.1678 184.309 57.1678C182.37 57.1678 180.98 56.3003 180.089 54.5903L191.742 49.8828L191.34 48.9153ZM179.459 51.7478C179.359 48.4678 182.068 46.7878 184.009 46.7878C185.53 46.7878 186.821 47.5303 187.251 48.5928L179.459 51.7478ZM169.987 60.0003H173.818V35.0003H169.987V60.0003ZM163.714 45.4003H163.586C162.725 44.4053 161.084 43.5053 159.005 43.5053C154.642 43.5053 150.652 47.2453 150.652 52.0403C150.652 56.8078 154.642 60.5178 159.005 60.5178C161.084 60.5178 162.725 59.6103 163.586 58.5853H163.714V59.8053C163.714 63.0578 161.934 64.8053 159.064 64.8053C156.723 64.8053 155.272 63.1553 154.672 61.7678L151.341 63.1253C152.301 65.3803 154.844 68.1553 159.064 68.1553C163.555 68.1553 167.345 65.5753 167.345 59.2978V44.0228H163.714V45.4003ZM159.333 57.1678C156.693 57.1678 154.483 55.0103 154.483 52.0403C154.483 49.0428 156.693 46.8553 159.333 46.8553C161.934 46.8553 163.985 49.0428 163.985 52.0403C163.985 55.0103 161.934 57.1678 159.333 57.1678ZM209.274 35.0003H200.112V60.0003H203.933V50.5278H209.274C213.517 50.5278 217.678 47.5303 217.678 42.7628C217.678 37.9978 213.507 35.0003 209.274 35.0003ZM209.374 47.0503H203.933V38.4778H209.374C212.227 38.4778 213.855 40.7903 213.855 42.7628C213.855 44.6978 212.227 47.0503 209.374 47.0503ZM232.99 43.4578C230.23 43.4578 227.36 44.6478 226.179 47.2853L229.569 48.6728C230.299 47.2853 231.641 46.8353 233.059 46.8353C235.041 46.8353 237.051 47.9978 237.082 50.0503V50.3128C236.391 49.9228 234.911 49.3453 233.09 49.3453C229.439 49.3453 225.718 51.3078 225.718 54.9703C225.718 58.3203 228.709 60.4778 232.071 60.4778C234.642 60.4778 236.06 59.3453 236.951 58.0278H237.082V59.9603H240.772V50.3703C240.772 45.9378 237.382 43.4578 232.99 43.4578ZM232.529 57.1578C231.28 57.1578 229.539 56.5528 229.539 55.0403C229.539 53.1053 231.71 52.3628 233.589 52.3628C235.272 52.3628 236.06 52.7253 237.082 53.2028C236.782 55.5178 234.742 57.1578 232.529 57.1578ZM254.215 44.0053L249.824 54.8428H249.693L245.153 44.0053H241.033L247.854 59.1503L243.962 67.5778H247.954L258.465 44.0053H254.215ZM219.778 60.0003H223.608V35.0003H219.778V60.0003Z" fill="black"></path>
    <path d="M22.1062 15.0774C21.5045 15.6924 21.1562 16.6499 21.1562 17.8899V62.1199C21.1562 63.3599 21.5045 64.3174 22.1062 64.9324L22.2547 65.0674L47.6403 40.2924V39.7074L22.2547 14.9324L22.1062 15.0774Z" fill="url(#paint0_linear_593_663)"></path>
    <path d="M56.097 48.5552L47.6445 40.2927V39.7077L56.1072 31.4452L56.2967 31.5527L66.3188 37.1202C69.179 38.7002 69.179 41.3002 66.3188 42.8902L56.2967 48.4477L56.097 48.5552Z" fill="url(#paint1_linear_593_663)"></path>
    <path d="M56.2917 48.4475L47.6395 40L22.1055 64.9324C23.0554 65.9074 24.6046 66.0249 26.3663 65.05L56.2917 48.4475Z" fill="url(#paint2_linear_593_663)"></path>
    <path d="M56.2917 31.5525L26.3663 14.95C24.6046 13.985 23.0554 14.1025 22.1055 15.0775L47.6395 40L56.2917 31.5525Z" fill="url(#paint3_linear_593_663)"></path>
    <defs>
      <linearGradient id="paint0_linear_593_663" x1="45.3864" y1="62.5805" x2="11.8312" y2="28.2122" gradientUnits="userSpaceOnUse">
        <stop stop-color="#00A0FF"></stop>
        <stop offset="0.0066" stop-color="#00A1FF"></stop>
        <stop offset="0.2601" stop-color="#00BEFF"></stop>
        <stop offset="0.5122" stop-color="#00D2FF"></stop>
        <stop offset="0.7604" stop-color="#00DFFF"></stop>
        <stop offset="1" stop-color="#00E3FF"></stop>
      </linearGradient>
      <linearGradient id="paint1_linear_593_663" x1="70.0432" y1="39.9974" x2="20.4768" y2="39.9974" gradientUnits="userSpaceOnUse">
        <stop stop-color="#FFE000"></stop>
        <stop offset="0.4087" stop-color="#FFBD00"></stop>
        <stop offset="0.7754" stop-color="#FFA500"></stop>
        <stop offset="1" stop-color="#FF9C00"></stop>
      </linearGradient>
      <linearGradient id="paint2_linear_593_663" x1="51.5869" y1="35.4078" x2="6.08339" y2="-11.1984" gradientUnits="userSpaceOnUse">
        <stop stop-color="#FF3A44"></stop>
        <stop offset="1" stop-color="#C31162"></stop>
      </linearGradient>
      <linearGradient id="paint3_linear_593_663" x1="15.678" y1="79.6476" x2="35.9974" y2="58.8361" gradientUnits="userSpaceOnUse">
        <stop stop-color="#32A071"></stop>
        <stop offset="0.0685" stop-color="#2DA771"></stop>
        <stop offset="0.4762" stop-color="#15CF74"></stop>
        <stop offset="0.8009" stop-color="#06E775"></stop>
        <stop offset="1" stop-color="#00F076"></stop>
      </linearGradient>
    </defs>
  </symbol>
</svg>